<svg width="241" height="76" viewBox="0 0 241 76" fill="none" xmlns="http://www.w3.org/2000/svg">
<g filter="url(#filter0_dd_32_9832)">
<rect x="8" y="6" width="225.03" height="60.358" rx="16" fill="white"/>
<circle cx="32.9306" cy="27.6501" r="10.005" stroke="#59524E" stroke-width="0.984097"/>
<path d="M30.9629 26.3379V23.7898C30.9629 22.6608 31.8441 21.7455 32.9311 21.7455C34.0181 21.7455 34.8993 22.6608 34.8993 23.7898V26.3379" stroke="#59524E" stroke-width="0.984097" stroke-linecap="round" stroke-linejoin="round"/>
<path d="M29.0285 30.0149L29.5165 29.9524L29.4833 29.6925L29.249 29.575L29.0285 30.0149ZM36.8324 30.0149L36.6119 29.575L36.3776 29.6925L36.3443 29.9524L36.8324 30.0149ZM36.5388 27.8385L36.0854 28.0297L37.0308 27.8385H36.5388ZM36.5388 25.3539H37.0308V24.8619L36.5388 24.8619V25.3539ZM29.3221 25.3539V24.8619L28.83 24.8619V25.3539H29.3221ZM29.3221 27.8385H28.83L29.7755 28.0297L29.3221 27.8385ZM29.1581 25.3539C29.1581 25.2634 29.2315 25.1899 29.3221 25.1899V24.2058C28.688 24.2058 28.174 24.7199 28.174 25.3539H29.1581ZM29.1581 29.428V25.3539H28.174V29.428H29.1581ZM29.249 29.575C29.194 29.5475 29.1581 29.4915 29.1581 29.428H28.174C28.174 29.8781 28.4331 30.2668 28.808 30.4548L29.249 29.575ZM32.9304 33.0627C31.1982 33.0627 29.7431 31.7221 29.5165 29.9524L28.5404 30.0774C28.8254 32.304 30.6693 34.0468 32.9304 34.0468V33.0627ZM36.3443 29.9524C36.1178 31.7221 34.6627 33.0627 32.9304 33.0627V34.0468C35.1916 34.0468 37.0354 32.304 37.3205 30.0774L36.3443 29.9524ZM36.7028 29.428C36.7028 29.4915 36.6668 29.5475 36.6119 29.575L37.0529 30.4548C37.4278 30.2668 37.6869 29.8781 37.6869 29.428H36.7028ZM36.7028 25.3539V29.428H37.6869V25.3539H36.7028ZM36.5388 25.1899C36.6294 25.1899 36.7028 25.2634 36.7028 25.3539H37.6869C37.6869 24.7199 37.1729 24.2058 36.5388 24.2058V25.1899ZM29.3221 25.1899H36.5388V24.2058H29.3221V25.1899ZM37.0308 27.8385V25.3539H36.0467V27.8385H37.0308ZM36.5388 24.8619L29.3221 24.8619V25.846L36.5388 25.846V24.8619ZM28.83 25.3539V27.8385H29.8141V25.3539H28.83ZM29.7755 28.0297C30.3122 26.7567 31.5295 25.8824 32.9304 25.8824V24.8983C31.1039 24.8983 29.5473 26.0381 28.8687 27.6473L29.7755 28.0297ZM32.9304 25.8824C34.3314 25.8824 35.5486 26.7567 36.0854 28.0297L36.9922 27.6473C36.3136 26.0381 34.757 24.8983 32.9304 24.8983V25.8824Z" fill="#59524E"/>
<circle cx="74.9189" cy="27.6501" r="10.005" stroke="#59524E" stroke-width="0.984097"/>
<path d="M72.7324 23.0576V32.8986" stroke="#59524E" stroke-width="0.984097" stroke-linecap="round" stroke-linejoin="round"/>
<path d="M70.9824 23.0576V25.2942C70.9853 26.2812 71.7669 27.0805 72.7319 27.0835C73.697 27.0805 74.4786 26.2812 74.4814 25.2942V23.0576" stroke="#59524E" stroke-width="0.984097" stroke-linecap="round" stroke-linejoin="round"/>
<path d="M78.855 29.1707H77.3977C77.2023 29.1774 77.0126 29.1104 76.8743 28.9859C76.736 28.8614 76.6616 28.6906 76.6691 28.5146C76.7473 26.6302 76.7473 24.089 78.1812 23.2069C78.2732 23.1503 78.437 23.0299 78.5923 23.0712C78.7475 23.1125 78.8544 23.2405 78.8555 23.3862V32.8986" stroke="#59524E" stroke-width="0.984097" stroke-linecap="round" stroke-linejoin="round"/>
<circle cx="164.144" cy="27.6501" r="10.005" stroke="#59524E" stroke-width="0.984097"/>
<circle cx="165.948" cy="25.1899" r="0.492049" fill="#59524E"/>
<circle cx="165.948" cy="26.8301" r="0.492049" fill="#59524E"/>
<circle cx="165.948" cy="28.4702" r="0.492049" fill="#59524E"/>
<circle cx="165.948" cy="30.1103" r="0.492049" fill="#59524E"/>
<path d="M171.36 26.0427L171.262 26.525C171.407 26.5543 171.557 26.5172 171.672 26.4237C171.786 26.3303 171.852 26.1904 171.852 26.0427H171.36ZM170.048 26.3379H169.556C169.556 26.5243 169.661 26.6947 169.828 26.778C169.995 26.8614 170.195 26.8432 170.344 26.7313L170.048 26.3379ZM158.239 26.3379L157.943 26.7313C158.092 26.8432 158.292 26.8614 158.459 26.778C158.626 26.6947 158.731 26.5243 158.731 26.3379H158.239ZM156.927 26.0427H156.435C156.435 26.1904 156.501 26.3303 156.615 26.4237C156.73 26.5172 156.88 26.5543 157.025 26.525L156.927 26.0427ZM170.048 28.9624L170.344 28.5689C170.195 28.457 169.995 28.4389 169.828 28.5222C169.661 28.6055 169.556 28.7759 169.556 28.9624H170.048ZM158.239 28.9624H158.731C158.731 28.7759 158.626 28.6055 158.459 28.5222C158.292 28.4389 158.092 28.457 157.943 28.5689L158.239 28.9624ZM156.927 29.2575L157.025 28.7752C156.88 28.7459 156.73 28.783 156.615 28.8765C156.501 28.9699 156.435 29.1098 156.435 29.2575H156.927ZM171.36 29.2575H171.852C171.852 29.1098 171.786 28.9699 171.672 28.8765C171.557 28.783 171.407 28.7459 171.262 28.7752L171.36 29.2575ZM158.895 22.2376C157.536 22.2376 156.435 23.3391 156.435 24.6978H157.419C157.419 23.8826 158.08 23.2217 158.895 23.2217V22.2376ZM169.392 22.2376H158.895V23.2217H169.392V22.2376ZM171.852 24.6978C171.852 23.3391 170.751 22.2376 169.392 22.2376V23.2217C170.207 23.2217 170.868 23.8826 170.868 24.6978H171.852ZM171.852 26.0427V24.6978H170.868V26.0427H171.852ZM171.032 26.502C171.111 26.502 171.188 26.51 171.262 26.525L171.458 25.5605C171.32 25.5325 171.178 25.5179 171.032 25.5179V26.502ZM170.344 26.7313C170.535 26.5872 170.773 26.502 171.032 26.502V25.5179C170.553 25.5179 170.109 25.6767 169.753 25.9444L170.344 26.7313ZM169.556 24.6978V26.3379H170.54V24.6978H169.556ZM169.392 24.5338C169.483 24.5338 169.556 24.6072 169.556 24.6978H170.54C170.54 24.0637 170.026 23.5497 169.392 23.5497V24.5338ZM158.895 24.5338H169.392V23.5497H158.895V24.5338ZM158.731 24.6978C158.731 24.6072 158.804 24.5338 158.895 24.5338V23.5497C158.261 23.5497 157.747 24.0637 157.747 24.6978H158.731ZM158.731 26.3379V24.6978H157.747V26.3379H158.731ZM157.255 26.502C157.514 26.502 157.752 26.5872 157.943 26.7313L158.534 25.9444C158.178 25.6767 157.734 25.5179 157.255 25.5179V26.502ZM157.025 26.525C157.099 26.51 157.176 26.502 157.255 26.502V25.5179C157.109 25.5179 156.967 25.5325 156.829 25.5605L157.025 26.525ZM156.435 24.6978V26.0427H157.419V24.6978H156.435ZM169.556 28.9624V30.6024H170.54V28.9624H169.556ZM169.556 30.6024C169.556 30.693 169.483 30.7664 169.392 30.7664V31.7505C170.026 31.7505 170.54 31.2365 170.54 30.6024H169.556ZM169.392 30.7664H158.895V31.7505H169.392V30.7664ZM158.895 30.7664C158.804 30.7664 158.731 30.693 158.731 30.6024H157.747C157.747 31.2365 158.261 31.7505 158.895 31.7505V30.7664ZM158.731 30.6024V28.9624H157.747V30.6024H158.731ZM157.943 28.5689C157.752 28.713 157.514 28.7982 157.255 28.7982V29.7823C157.734 29.7823 158.178 29.6235 158.534 29.3558L157.943 28.5689ZM157.255 28.7982C157.176 28.7982 157.099 28.7903 157.025 28.7752L156.829 29.7397C156.967 29.7677 157.109 29.7823 157.255 29.7823V28.7982ZM156.435 29.2575V30.6024H157.419V29.2575H156.435ZM156.435 30.6024C156.435 31.9611 157.536 33.0626 158.895 33.0626V32.0785C158.08 32.0785 157.419 31.4176 157.419 30.6024H156.435ZM158.895 33.0626H169.392V32.0785H158.895V33.0626ZM169.392 33.0626C170.751 33.0626 171.852 31.9611 171.852 30.6024H170.868C170.868 31.4176 170.207 32.0785 169.392 32.0785V33.0626ZM171.852 30.6024V29.2575H170.868V30.6024H171.852ZM171.262 28.7752C171.188 28.7903 171.111 28.7982 171.032 28.7982V29.7823C171.178 29.7823 171.32 29.7677 171.458 29.7397L171.262 28.7752ZM171.032 28.7982C170.773 28.7982 170.535 28.713 170.344 28.5689L169.753 29.3558C170.109 29.6235 170.553 29.7823 171.032 29.7823V28.7982Z" fill="#59524E"/>
<circle cx="119.531" cy="27.6501" r="10.005" stroke="#59524E" stroke-width="0.984097"/>
<path fill-rule="evenodd" clip-rule="evenodd" d="M116.635 25.6819H122.33C122.723 25.6819 123.042 26.0083 123.042 26.4108V28.5977C123.042 29.5644 122.667 30.4915 121.999 31.175C121.332 31.8585 120.426 32.2425 119.482 32.2425V32.2425C117.516 32.2425 115.923 30.6107 115.923 28.5977V26.4108C115.923 26.0083 116.242 25.6819 116.635 25.6819Z" stroke="#59524E" stroke-width="0.984097" stroke-linecap="round" stroke-linejoin="round"/>
<path d="M123.422 26.338H123.801C124.43 26.3401 124.939 26.9263 124.94 27.6501V27.6501C124.939 28.3739 124.43 28.9602 123.801 28.9623H123.042" stroke="#59524E" stroke-width="0.984097" stroke-linecap="round" stroke-linejoin="round"/>
<path d="M121.974 21.0895C122.656 22.4857 120.597 22.9755 121.618 24.3698" stroke="#59524E" stroke-width="0.984097" stroke-linecap="round" stroke-linejoin="round"/>
<path d="M119.839 21.0895C120.521 22.4857 118.462 22.9755 119.483 24.3698" stroke="#59524E" stroke-width="0.984097" stroke-linecap="round" stroke-linejoin="round"/>
<path d="M117.702 21.0895C118.384 22.4857 116.326 22.9755 117.346 24.3698" stroke="#59524E" stroke-width="0.984097" stroke-linecap="round" stroke-linejoin="round"/>
<circle cx="208.756" cy="27.6501" r="10.005" stroke="#59524E" stroke-width="0.984097"/>
<circle cx="208.592" cy="27.6061" r="6.72467" transform="rotate(30 208.592 27.6061)" stroke="#59524E" stroke-width="0.984097"/>
<path d="M210.969 33.6927C209.938 29.8428 205.981 27.5582 202.131 28.5897" stroke="#59524E" stroke-width="0.984097"/>
<path d="M206.304 21.3616C207.336 25.2115 211.293 27.4962 215.143 26.4646" stroke="#59524E" stroke-width="0.984097"/>
<path d="M211.708 22.2086L205.475 33.0038" stroke="#59524E" stroke-width="0.984097" stroke-linecap="square"/>
<path d="M23.0385 51.6715H24.8886V52.3958H22.141V46.9242H23.0385V51.6715ZM25.34 50.2071C25.34 49.7715 25.4292 49.3857 25.6077 49.0498C25.7913 48.7139 26.038 48.4541 26.3477 48.2704C26.6626 48.0815 27.009 47.987 27.3869 47.987C27.7281 47.987 28.0246 48.0552 28.2765 48.1917C28.5337 48.3229 28.7384 48.4882 28.8906 48.6877V48.0579H29.796V52.3958H28.8906V51.7502C28.7384 51.9549 28.5311 52.1255 28.2686 52.2619C28.0062 52.3984 27.7071 52.4666 27.3712 52.4666C26.9985 52.4666 26.6574 52.3721 26.3477 52.1832C26.038 51.989 25.7913 51.7213 25.6077 51.3802C25.4292 51.0338 25.34 50.6427 25.34 50.2071ZM28.8906 50.2229C28.8906 49.9237 28.8276 49.6639 28.7017 49.4435C28.5809 49.223 28.4209 49.0551 28.2214 48.9396C28.022 48.8241 27.8068 48.7664 27.5758 48.7664C27.3449 48.7664 27.1297 48.8241 26.9303 48.9396C26.7308 49.0498 26.5681 49.2151 26.4422 49.4356C26.3214 49.6508 26.2611 49.908 26.2611 50.2071C26.2611 50.5063 26.3214 50.7687 26.4422 50.9944C26.5681 51.2201 26.7308 51.3933 26.9303 51.514C27.135 51.6295 27.3502 51.6872 27.5758 51.6872C27.8068 51.6872 28.022 51.6295 28.2214 51.514C28.4209 51.3985 28.5809 51.2306 28.7017 51.0101C28.8276 50.7845 28.8906 50.522 28.8906 50.2229ZM30.6756 50.2071C30.6756 49.7715 30.7649 49.3857 30.9433 49.0498C31.127 48.7139 31.3737 48.4541 31.6833 48.2704C31.9983 48.0815 32.3473 47.987 32.7304 47.987C33.0138 47.987 33.292 48.05 33.5649 48.1759C33.8431 48.2967 34.0635 48.4594 34.2263 48.6641V46.5699H35.1316V52.3958H34.2263V51.7423C34.0793 51.9523 33.8746 52.1255 33.6122 52.2619C33.355 52.3984 33.0585 52.4666 32.7226 52.4666C32.3447 52.4666 31.9983 52.3721 31.6833 52.1832C31.3737 51.989 31.127 51.7213 30.9433 51.3802C30.7649 51.0338 30.6756 50.6427 30.6756 50.2071ZM34.2263 50.2229C34.2263 49.9237 34.1633 49.6639 34.0373 49.4435C33.9166 49.223 33.7565 49.0551 33.5571 48.9396C33.3576 48.8241 33.1424 48.7664 32.9115 48.7664C32.6806 48.7664 32.4654 48.8241 32.2659 48.9396C32.0665 49.0498 31.9038 49.2151 31.7778 49.4356C31.6571 49.6508 31.5967 49.908 31.5967 50.2071C31.5967 50.5063 31.6571 50.7687 31.7778 50.9944C31.9038 51.2201 32.0665 51.3933 32.2659 51.514C32.4706 51.6295 32.6858 51.6872 32.9115 51.6872C33.1424 51.6872 33.3576 51.6295 33.5571 51.514C33.7565 51.3985 33.9166 51.2306 34.0373 51.0101C34.1633 50.7845 34.2263 50.522 34.2263 50.2229ZM40.2862 50.1205C40.2862 50.2832 40.2757 50.4302 40.2547 50.5614H36.9403C36.9665 50.9078 37.0951 51.186 37.326 51.3959C37.557 51.6058 37.8404 51.7108 38.1763 51.7108C38.6592 51.7108 39.0003 51.5088 39.1998 51.1046H40.1681C40.0369 51.5035 39.7981 51.8315 39.4517 52.0887C39.1105 52.3406 38.6854 52.4666 38.1763 52.4666C37.7617 52.4666 37.389 52.3748 37.0584 52.1911C36.733 52.0021 36.4758 51.7397 36.2868 51.4038C36.1031 51.0626 36.0113 50.669 36.0113 50.2229C36.0113 49.7767 36.1005 49.3857 36.279 49.0498C36.4627 48.7087 36.7172 48.4462 37.0426 48.2625C37.3733 48.0788 37.7512 47.987 38.1763 47.987C38.5857 47.987 38.9505 48.0762 39.2706 48.2547C39.5908 48.4331 39.8401 48.685 40.0185 49.0105C40.197 49.3306 40.2862 49.7006 40.2862 50.1205ZM39.3493 49.8371C39.3441 49.5064 39.226 49.2414 38.9951 49.0419C38.7641 48.8425 38.4781 48.7428 38.1369 48.7428C37.8273 48.7428 37.5622 48.8425 37.3418 49.0419C37.1213 49.2361 36.9901 49.5012 36.9481 49.8371H39.3493ZM43.3581 47.987C43.6992 47.987 44.0036 48.0579 44.2713 48.1996C44.5442 48.3413 44.7568 48.5512 44.909 48.8294C45.0612 49.1076 45.1373 49.4435 45.1373 49.8371V52.3958H44.2477V49.9709C44.2477 49.5825 44.1506 49.286 43.9564 49.0813C43.7622 48.8714 43.4971 48.7664 43.1612 48.7664C42.8253 48.7664 42.5577 48.8714 42.3582 49.0813C42.164 49.286 42.0669 49.5825 42.0669 49.9709V52.3958H41.1694V48.0579H42.0669V48.5538C42.2139 48.3754 42.4002 48.2363 42.6259 48.1366C42.8568 48.0369 43.1009 47.987 43.3581 47.987Z" fill="#59524E"/>
<path d="M59.1456 52.3958L57.886 50.2071H57.2011V52.3958H56.3036V46.9242H58.193C58.6129 46.9242 58.9672 46.9976 59.2558 47.1446C59.5498 47.2916 59.7676 47.4884 59.9093 47.7351C60.0562 47.9817 60.1297 48.2573 60.1297 48.5617C60.1297 48.9186 60.0248 49.244 59.8148 49.5379C59.6101 49.8266 59.2926 50.0234 58.8622 50.1284L60.2163 52.3958H59.1456ZM57.2011 49.4907H58.193C58.5289 49.4907 58.7809 49.4067 58.9488 49.2388C59.122 49.0708 59.2086 48.8451 59.2086 48.5617C59.2086 48.2783 59.1246 48.0579 58.9567 47.9004C58.7887 47.7377 58.5342 47.6563 58.193 47.6563H57.2011V49.4907ZM65.2536 50.1205C65.2536 50.2832 65.2431 50.4302 65.2221 50.5614H61.9077C61.9339 50.9078 62.0625 51.186 62.2935 51.3959C62.5244 51.6058 62.8078 51.7108 63.1437 51.7108C63.6266 51.7108 63.9677 51.5088 64.1672 51.1046H65.1355C65.0043 51.5035 64.7655 51.8315 64.4191 52.0887C64.0779 52.3406 63.6528 52.4666 63.1437 52.4666C62.7291 52.4666 62.3564 52.3748 62.0258 52.1911C61.7004 52.0021 61.4432 51.7397 61.2542 51.4038C61.0705 51.0626 60.9787 50.669 60.9787 50.2229C60.9787 49.7767 61.0679 49.3857 61.2464 49.0498C61.4301 48.7087 61.6846 48.4462 62.01 48.2625C62.3407 48.0788 62.7186 47.987 63.1437 47.987C63.5531 47.987 63.9179 48.0762 64.238 48.2547C64.5582 48.4331 64.8075 48.685 64.9859 49.0105C65.1644 49.3306 65.2536 49.7006 65.2536 50.1205ZM64.3168 49.8371C64.3115 49.5064 64.1934 49.2414 63.9625 49.0419C63.7315 48.8425 63.4455 48.7428 63.1043 48.7428C62.7947 48.7428 62.5296 48.8425 62.3092 49.0419C62.0888 49.2361 61.9575 49.5012 61.9156 49.8371H64.3168ZM67.7114 52.4666C67.3702 52.4666 67.0632 52.4062 66.7903 52.2855C66.5226 52.1596 66.31 51.9916 66.1526 51.7817C65.9951 51.5665 65.9112 51.3277 65.9007 51.0653H66.8296C66.8454 51.249 66.932 51.4038 67.0894 51.5297C67.2522 51.6505 67.4542 51.7108 67.6957 51.7108C67.9476 51.7108 68.1418 51.6636 68.2782 51.5691C68.4199 51.4694 68.4908 51.3434 68.4908 51.1912C68.4908 51.0285 68.4121 50.9078 68.2546 50.8291C68.1024 50.7503 67.8584 50.6637 67.5225 50.5693C67.197 50.48 66.932 50.3934 66.7273 50.3095C66.5226 50.2255 66.3442 50.0969 66.192 49.9237C66.045 49.7505 65.9715 49.5222 65.9715 49.2388C65.9715 49.0078 66.0397 48.7979 66.1762 48.6089C66.3127 48.4147 66.5069 48.2625 66.7588 48.1523C67.016 48.0421 67.3099 47.987 67.6405 47.987C68.1339 47.987 68.5302 48.113 68.8293 48.3649C69.1337 48.6116 69.2965 48.9501 69.3174 49.3805H68.4199C68.4042 49.1863 68.3255 49.0315 68.1838 48.916C68.0421 48.8005 67.8505 48.7428 67.6091 48.7428C67.3729 48.7428 67.1918 48.7874 67.0658 48.8766C66.9399 48.9658 66.8769 49.0839 66.8769 49.2309C66.8769 49.3464 66.9189 49.4435 67.0028 49.5222C67.0868 49.6009 67.1892 49.6639 67.3099 49.7111C67.4306 49.7531 67.6091 49.8082 67.8452 49.8765C68.1601 49.9604 68.4173 50.047 68.6168 50.1363C68.8215 50.2202 68.9973 50.3462 69.1442 50.5142C69.2912 50.6821 69.3673 50.9052 69.3726 51.1833C69.3726 51.43 69.3043 51.6505 69.1679 51.8447C69.0314 52.0389 68.8372 52.1911 68.5853 52.3013C68.3386 52.4115 68.0473 52.4666 67.7114 52.4666ZM71.3894 48.79V51.1912C71.3894 51.3539 71.4261 51.472 71.4996 51.5455C71.5783 51.6137 71.7096 51.6478 71.8933 51.6478H72.4444V52.3958H71.7358C71.3317 52.3958 71.022 52.3013 70.8068 52.1123C70.5916 51.9234 70.484 51.6163 70.484 51.1912V48.79H69.9723V48.0579H70.484V46.9793H71.3894V48.0579H72.4444V48.79H71.3894ZM72.9724 50.2071C72.9724 49.7715 73.0616 49.3857 73.2401 49.0498C73.4238 48.7139 73.6704 48.4541 73.9801 48.2704C74.295 48.0815 74.6414 47.987 75.0193 47.987C75.3605 47.987 75.657 48.0552 75.9089 48.1917C76.1661 48.3229 76.3708 48.4882 76.523 48.6877V48.0579H77.4284V52.3958H76.523V51.7502C76.3708 51.9549 76.1635 52.1255 75.9011 52.2619C75.6386 52.3984 75.3395 52.4666 75.0036 52.4666C74.6309 52.4666 74.2898 52.3721 73.9801 52.1832C73.6704 51.989 73.4238 51.7213 73.2401 51.3802C73.0616 51.0338 72.9724 50.6427 72.9724 50.2071ZM76.523 50.2229C76.523 49.9237 76.46 49.6639 76.3341 49.4435C76.2133 49.223 76.0533 49.0551 75.8538 48.9396C75.6544 48.8241 75.4392 48.7664 75.2083 48.7664C74.9773 48.7664 74.7621 48.8241 74.5627 48.9396C74.3632 49.0498 74.2005 49.2151 74.0746 49.4356C73.9539 49.6508 73.8935 49.908 73.8935 50.2071C73.8935 50.5063 73.9539 50.7687 74.0746 50.9944C74.2005 51.2201 74.3632 51.3933 74.5627 51.514C74.7674 51.6295 74.9826 51.6872 75.2083 51.6872C75.4392 51.6872 75.6544 51.6295 75.8538 51.514C76.0533 51.3985 76.2133 51.2306 76.3341 51.0101C76.46 50.7845 76.523 50.522 76.523 50.2229ZM79.5047 48.6877C79.6359 48.4672 79.8091 48.2967 80.0243 48.1759C80.2447 48.05 80.5045 47.987 80.8037 47.987V48.916H80.5754C80.2237 48.916 79.9561 49.0052 79.7724 49.1837C79.5939 49.3621 79.5047 49.6718 79.5047 50.1126V52.3958H78.6072V48.0579H79.5047V48.6877ZM81.3295 50.2071C81.3295 49.7715 81.4187 49.3857 81.5972 49.0498C81.7809 48.7139 82.0276 48.4541 82.3372 48.2704C82.6522 48.0815 82.9986 47.987 83.3764 47.987C83.7176 47.987 84.0141 48.0552 84.2661 48.1917C84.5232 48.3229 84.7279 48.4882 84.8801 48.6877V48.0579H85.7855V52.3958H84.8801V51.7502C84.7279 51.9549 84.5206 52.1255 84.2582 52.2619C83.9958 52.3984 83.6966 52.4666 83.3607 52.4666C82.9881 52.4666 82.6469 52.3721 82.3372 52.1832C82.0276 51.989 81.7809 51.7213 81.5972 51.3802C81.4187 51.0338 81.3295 50.6427 81.3295 50.2071ZM84.8801 50.2229C84.8801 49.9237 84.8172 49.6639 84.6912 49.4435C84.5705 49.223 84.4104 49.0551 84.211 48.9396C84.0115 48.8241 83.7963 48.7664 83.5654 48.7664C83.3345 48.7664 83.1193 48.8241 82.9198 48.9396C82.7204 49.0498 82.5577 49.2151 82.4317 49.4356C82.311 49.6508 82.2506 49.908 82.2506 50.2071C82.2506 50.5063 82.311 50.7687 82.4317 50.9944C82.5577 51.2201 82.7204 51.3933 82.9198 51.514C83.1245 51.6295 83.3397 51.6872 83.5654 51.6872C83.7963 51.6872 84.0115 51.6295 84.211 51.514C84.4104 51.3985 84.5705 51.2306 84.6912 51.0101C84.8172 50.7845 84.8801 50.522 84.8801 50.2229ZM89.153 47.987C89.4941 47.987 89.7985 48.0579 90.0662 48.1996C90.3391 48.3413 90.5517 48.5512 90.7039 48.8294C90.8561 49.1076 90.9322 49.4435 90.9322 49.8371V52.3958H90.0426V49.9709C90.0426 49.5825 89.9455 49.286 89.7513 49.0813C89.5571 48.8714 89.2921 48.7664 88.9562 48.7664C88.6203 48.7664 88.3526 48.8714 88.1531 49.0813C87.9589 49.286 87.8618 49.5825 87.8618 49.9709V52.3958H86.9643V48.0579H87.8618V48.5538C88.0088 48.3754 88.1951 48.2363 88.4208 48.1366C88.6517 48.0369 88.8958 47.987 89.153 47.987ZM93.1241 48.79V51.1912C93.1241 51.3539 93.1609 51.472 93.2343 51.5455C93.3131 51.6137 93.4443 51.6478 93.628 51.6478H94.1791V52.3958H93.4705C93.0664 52.3958 92.7567 52.3013 92.5415 52.1123C92.3263 51.9234 92.2187 51.6163 92.2187 51.1912V48.79H91.707V48.0579H92.2187V46.9793H93.1241V48.0579H94.1791V48.79H93.1241Z" fill="#59524E"/>
<path d="M101.167 49.6482C101.167 49.1128 101.291 48.6326 101.537 48.2074C101.789 47.7823 102.128 47.4516 102.553 47.2155C102.983 46.974 103.453 46.8533 103.962 46.8533C104.545 46.8533 105.062 46.9976 105.513 47.2863C105.97 47.5697 106.3 47.9739 106.505 48.4987H105.426C105.285 48.2101 105.088 47.9949 104.836 47.8532C104.584 47.7114 104.293 47.6406 103.962 47.6406C103.6 47.6406 103.277 47.7219 102.994 47.8846C102.71 48.0474 102.487 48.2809 102.325 48.5853C102.167 48.8897 102.088 49.244 102.088 49.6482C102.088 50.0523 102.167 50.4066 102.325 50.711C102.487 51.0154 102.71 51.2516 102.994 51.4195C103.277 51.5822 103.6 51.6636 103.962 51.6636C104.293 51.6636 104.584 51.5927 104.836 51.451C105.088 51.3093 105.285 51.0941 105.426 50.8055H106.505C106.3 51.3303 105.97 51.7344 105.513 52.0179C105.062 52.3013 104.545 52.443 103.962 52.443C103.448 52.443 102.978 52.3249 102.553 52.0887C102.128 51.8473 101.789 51.514 101.537 51.0889C101.291 50.6637 101.167 50.1835 101.167 49.6482ZM107.256 50.2071C107.256 49.7715 107.346 49.3857 107.524 49.0498C107.708 48.7139 107.954 48.4541 108.264 48.2704C108.579 48.0815 108.925 47.987 109.303 47.987C109.644 47.987 109.941 48.0552 110.193 48.1917C110.45 48.3229 110.655 48.4882 110.807 48.6877V48.0579H111.712V52.3958H110.807V51.7502C110.655 51.9549 110.447 52.1255 110.185 52.2619C109.923 52.3984 109.623 52.4666 109.288 52.4666C108.915 52.4666 108.574 52.3721 108.264 52.1832C107.954 51.989 107.708 51.7213 107.524 51.3802C107.346 51.0338 107.256 50.6427 107.256 50.2071ZM110.807 50.2229C110.807 49.9237 110.744 49.6639 110.618 49.4435C110.497 49.223 110.337 49.0551 110.138 48.9396C109.938 48.8241 109.723 48.7664 109.492 48.7664C109.261 48.7664 109.046 48.8241 108.847 48.9396C108.647 49.0498 108.485 49.2151 108.359 49.4356C108.238 49.6508 108.177 49.908 108.177 50.2071C108.177 50.5063 108.238 50.7687 108.359 50.9944C108.485 51.2201 108.647 51.3933 108.847 51.514C109.051 51.6295 109.267 51.6872 109.492 51.6872C109.723 51.6872 109.938 51.6295 110.138 51.514C110.337 51.3985 110.497 51.2306 110.618 51.0101C110.744 50.7845 110.807 50.522 110.807 50.2229ZM114.71 48.79H113.907V52.3958H113.001V48.79H112.49V48.0579H113.001V47.7508C113.001 47.2522 113.133 46.8901 113.395 46.6644C113.663 46.4334 114.08 46.318 114.647 46.318V47.0659C114.374 47.0659 114.182 47.1184 114.072 47.2233C113.962 47.3231 113.907 47.4989 113.907 47.7508V48.0579H114.71V48.79ZM119.481 50.1205C119.481 50.2832 119.47 50.4302 119.449 50.5614H116.135C116.161 50.9078 116.29 51.186 116.521 51.3959C116.752 51.6058 117.035 51.7108 117.371 51.7108C117.854 51.7108 118.195 51.5088 118.394 51.1046H119.363C119.232 51.5035 118.993 51.8315 118.646 52.0887C118.305 52.3406 117.88 52.4666 117.371 52.4666C116.956 52.4666 116.584 52.3748 116.253 52.1911C115.928 52.0021 115.671 51.7397 115.482 51.4038C115.298 51.0626 115.206 50.669 115.206 50.2229C115.206 49.7767 115.295 49.3857 115.474 49.0498C115.657 48.7087 115.912 48.4462 116.237 48.2625C116.568 48.0788 116.946 47.987 117.371 47.987C117.78 47.987 118.145 48.0762 118.465 48.2547C118.786 48.4331 119.035 48.685 119.213 49.0105C119.392 49.3306 119.481 49.7006 119.481 50.1205ZM118.544 49.8371C118.539 49.5064 118.421 49.2414 118.19 49.0419C117.959 48.8425 117.673 48.7428 117.332 48.7428C117.022 48.7428 116.757 48.8425 116.537 49.0419C116.316 49.2361 116.185 49.5012 116.143 49.8371H118.544ZM118.158 46.8927L116.418 47.7508V47.0895L118.158 46.129V46.8927ZM123.277 44.9638L121.136 53.7735H120.254L122.387 44.9638H123.277ZM127.337 49.5852C127.631 49.6377 127.88 49.7925 128.085 50.0497C128.289 50.3068 128.392 50.5981 128.392 50.9235C128.392 51.2017 128.318 51.4536 128.171 51.6793C128.03 51.8998 127.822 52.0756 127.549 52.2068C127.277 52.3328 126.959 52.3958 126.597 52.3958H124.408V46.9242H126.494C126.867 46.9242 127.187 46.9872 127.455 47.1131C127.723 47.2391 127.925 47.4097 128.061 47.6248C128.198 47.8348 128.266 48.071 128.266 48.3334C128.266 48.6483 128.182 48.9107 128.014 49.1207C127.846 49.3306 127.62 49.4854 127.337 49.5852ZM125.306 49.223H126.416C126.71 49.223 126.938 49.1574 127.101 49.0262C127.269 48.8897 127.353 48.6955 127.353 48.4436C127.353 48.1969 127.269 48.0054 127.101 47.8689C126.938 47.7272 126.71 47.6563 126.416 47.6563H125.306V49.223ZM126.518 51.6636C126.823 51.6636 127.061 51.5901 127.235 51.4431C127.408 51.2962 127.494 51.0915 127.494 50.8291C127.494 50.5614 127.402 50.3488 127.219 50.1914C127.035 50.0339 126.791 49.9552 126.487 49.9552H125.306V51.6636H126.518ZM129.068 50.2071C129.068 49.7715 129.157 49.3857 129.336 49.0498C129.519 48.7139 129.766 48.4541 130.076 48.2704C130.391 48.0815 130.737 47.987 131.115 47.987C131.456 47.987 131.753 48.0552 132.005 48.1917C132.262 48.3229 132.466 48.4882 132.619 48.6877V48.0579H133.524V52.3958H132.619V51.7502C132.466 51.9549 132.259 52.1255 131.997 52.2619C131.734 52.3984 131.435 52.4666 131.099 52.4666C130.726 52.4666 130.385 52.3721 130.076 52.1832C129.766 51.989 129.519 51.7213 129.336 51.3802C129.157 51.0338 129.068 50.6427 129.068 50.2071ZM132.619 50.2229C132.619 49.9237 132.556 49.6639 132.43 49.4435C132.309 49.223 132.149 49.0551 131.949 48.9396C131.75 48.8241 131.535 48.7664 131.304 48.7664C131.073 48.7664 130.858 48.8241 130.658 48.9396C130.459 49.0498 130.296 49.2151 130.17 49.4356C130.049 49.6508 129.989 49.908 129.989 50.2071C129.989 50.5063 130.049 50.7687 130.17 50.9944C130.296 51.2201 130.459 51.3933 130.658 51.514C130.863 51.6295 131.078 51.6872 131.304 51.6872C131.535 51.6872 131.75 51.6295 131.949 51.514C132.149 51.3985 132.309 51.2306 132.43 51.0101C132.556 50.7845 132.619 50.522 132.619 50.2229ZM135.6 48.6877C135.731 48.4672 135.905 48.2967 136.12 48.1759C136.34 48.05 136.6 47.987 136.899 47.987V48.916H136.671C136.319 48.916 136.052 49.0052 135.868 49.1837C135.69 49.3621 135.6 49.6718 135.6 50.1126V52.3958H134.703V48.0579H135.6V48.6877Z" fill="#59524E"/>
<path d="M156.624 46.9242L154.569 52.3958H153.53L151.467 46.9242H152.428L154.049 51.4746L155.679 46.9242H156.624ZM161.35 50.1205C161.35 50.2832 161.34 50.4302 161.319 50.5614H158.004C158.03 50.9078 158.159 51.186 158.39 51.3959C158.621 51.6058 158.904 51.7108 159.24 51.7108C159.723 51.7108 160.064 51.5088 160.264 51.1046H161.232C161.101 51.5035 160.862 51.8315 160.516 52.0887C160.175 52.3406 159.749 52.4666 159.24 52.4666C158.826 52.4666 158.453 52.3748 158.122 52.1911C157.797 52.0021 157.54 51.7397 157.351 51.4038C157.167 51.0626 157.075 50.669 157.075 50.2229C157.075 49.7767 157.164 49.3857 157.343 49.0498C157.527 48.7087 157.781 48.4462 158.107 48.2625C158.437 48.0788 158.815 47.987 159.24 47.987C159.65 47.987 160.014 48.0762 160.335 48.2547C160.655 48.4331 160.904 48.685 161.083 49.0105C161.261 49.3306 161.35 49.7006 161.35 50.1205ZM160.413 49.8371C160.408 49.5064 160.29 49.2414 160.059 49.0419C159.828 48.8425 159.542 48.7428 159.201 48.7428C158.891 48.7428 158.626 48.8425 158.406 49.0419C158.185 49.2361 158.054 49.5012 158.012 49.8371H160.413ZM164.422 47.987C164.763 47.987 165.068 48.0579 165.335 48.1996C165.608 48.3413 165.821 48.5512 165.973 48.8294C166.125 49.1076 166.201 49.4435 166.201 49.8371V52.3958H165.312V49.9709C165.312 49.5825 165.215 49.286 165.02 49.0813C164.826 48.8714 164.561 48.7664 164.225 48.7664C163.889 48.7664 163.622 48.8714 163.422 49.0813C163.228 49.286 163.131 49.5825 163.131 49.9709V52.3958H162.233V48.0579H163.131V48.5538C163.278 48.3754 163.464 48.2363 163.69 48.1366C163.921 48.0369 164.165 47.987 164.422 47.987ZM171.275 48.0579V52.3958H170.377V51.884C170.235 52.0625 170.049 52.2042 169.818 52.3092C169.592 52.4089 169.351 52.4587 169.094 52.4587C168.753 52.4587 168.446 52.3879 168.173 52.2462C167.905 52.1045 167.692 51.8945 167.535 51.6163C167.383 51.3382 167.307 51.0023 167.307 50.6086V48.0579H168.196V50.4748C168.196 50.8632 168.293 51.1623 168.488 51.3723C168.682 51.577 168.947 51.6793 169.283 51.6793C169.619 51.6793 169.884 51.577 170.078 51.3723C170.277 51.1623 170.377 50.8632 170.377 50.4748V48.0579H171.275ZM176.435 50.1205C176.435 50.2832 176.424 50.4302 176.403 50.5614H173.089C173.115 50.9078 173.243 51.186 173.474 51.3959C173.705 51.6058 173.989 51.7108 174.325 51.7108C174.808 51.7108 175.149 51.5088 175.348 51.1046H176.316C176.185 51.5035 175.946 51.8315 175.6 52.0887C175.259 52.3406 174.834 52.4666 174.325 52.4666C173.91 52.4666 173.537 52.3748 173.207 52.1911C172.881 52.0021 172.624 51.7397 172.435 51.4038C172.251 51.0626 172.16 50.669 172.16 50.2229C172.16 49.7767 172.249 49.3857 172.427 49.0498C172.611 48.7087 172.866 48.4462 173.191 48.2625C173.522 48.0788 173.9 47.987 174.325 47.987C174.734 47.987 175.099 48.0762 175.419 48.2547C175.739 48.4331 175.988 48.685 176.167 49.0105C176.345 49.3306 176.435 49.7006 176.435 50.1205ZM175.498 49.8371C175.492 49.5064 175.374 49.2414 175.143 49.0419C174.912 48.8425 174.626 48.7428 174.285 48.7428C173.976 48.7428 173.711 48.8425 173.49 49.0419C173.27 49.2361 173.138 49.5012 173.096 49.8371H175.498Z" fill="#59524E"/>
<path d="M198.725 52.4509C198.358 52.4509 198.027 52.3879 197.733 52.2619C197.439 52.1307 197.208 51.947 197.04 51.7108C196.873 51.4746 196.789 51.1991 196.789 50.8842H197.749C197.77 51.1204 197.862 51.3146 198.025 51.4668C198.193 51.619 198.426 51.6951 198.725 51.6951C199.035 51.6951 199.276 51.6216 199.45 51.4746C199.623 51.3224 199.709 51.1282 199.709 50.8921C199.709 50.7084 199.654 50.5588 199.544 50.4433C199.439 50.3278 199.305 50.2386 199.143 50.1756C198.985 50.1126 198.765 50.0444 198.481 49.9709C198.124 49.8765 197.833 49.782 197.607 49.6875C197.387 49.5878 197.198 49.4356 197.04 49.2309C196.883 49.0262 196.804 48.7533 196.804 48.4121C196.804 48.0972 196.883 47.8217 197.04 47.5855C197.198 47.3493 197.418 47.1682 197.702 47.0423C197.985 46.9163 198.313 46.8533 198.686 46.8533C199.216 46.8533 199.649 46.9872 199.985 47.2548C200.326 47.5173 200.515 47.8794 200.552 48.3413H199.56C199.544 48.1418 199.45 47.9712 199.276 47.8295C199.103 47.6878 198.875 47.617 198.591 47.617C198.334 47.617 198.124 47.6826 197.962 47.8138C197.799 47.945 197.718 48.134 197.718 48.3806C197.718 48.5486 197.767 48.6877 197.867 48.7979C197.972 48.9029 198.103 48.9868 198.261 49.0498C198.418 49.1128 198.633 49.181 198.906 49.2545C199.268 49.3542 199.562 49.454 199.788 49.5537C200.019 49.6534 200.213 49.8082 200.371 50.0182C200.533 50.2229 200.615 50.4984 200.615 50.8448C200.615 51.123 200.539 51.3854 200.386 51.6321C200.239 51.8788 200.022 52.0782 199.733 52.2304C199.45 52.3774 199.114 52.4509 198.725 52.4509ZM203.555 52.4666C203.146 52.4666 202.776 52.3748 202.445 52.1911C202.115 52.0021 201.855 51.7397 201.666 51.4038C201.477 51.0626 201.382 50.669 201.382 50.2229C201.382 49.782 201.48 49.391 201.674 49.0498C201.868 48.7087 202.133 48.4462 202.469 48.2625C202.805 48.0788 203.18 47.987 203.595 47.987C204.009 47.987 204.385 48.0788 204.72 48.2625C205.056 48.4462 205.321 48.7087 205.516 49.0498C205.71 49.391 205.807 49.782 205.807 50.2229C205.807 50.6637 205.707 51.0548 205.508 51.3959C205.308 51.7371 205.035 52.0021 204.689 52.1911C204.348 52.3748 203.97 52.4666 203.555 52.4666ZM203.555 51.6872C203.786 51.6872 204.001 51.6321 204.201 51.5219C204.406 51.4117 204.571 51.2463 204.697 51.0259C204.823 50.8055 204.886 50.5378 204.886 50.2229C204.886 49.908 204.825 49.6429 204.705 49.4277C204.584 49.2073 204.424 49.0419 204.225 48.9317C204.025 48.8215 203.81 48.7664 203.579 48.7664C203.348 48.7664 203.133 48.8215 202.933 48.9317C202.739 49.0419 202.584 49.2073 202.469 49.4277C202.353 49.6429 202.296 49.908 202.296 50.2229C202.296 50.69 202.414 51.0521 202.65 51.3093C202.891 51.5612 203.193 51.6872 203.555 51.6872ZM208.883 47.987C209.224 47.987 209.528 48.0579 209.796 48.1996C210.069 48.3413 210.282 48.5512 210.434 48.8294C210.586 49.1076 210.662 49.4435 210.662 49.8371V52.3958H209.772V49.9709C209.772 49.5825 209.675 49.286 209.481 49.0813C209.287 48.8714 209.022 48.7664 208.686 48.7664C208.35 48.7664 208.082 48.8714 207.883 49.0813C207.689 49.286 207.592 49.5825 207.592 49.9709V52.3958H206.694V48.0579H207.592V48.5538C207.739 48.3754 207.925 48.2363 208.151 48.1366C208.382 48.0369 208.626 47.987 208.883 47.987ZM213.381 52.4666C213.04 52.4666 212.733 52.4062 212.46 52.2855C212.193 52.1596 211.98 51.9916 211.823 51.7817C211.665 51.5665 211.581 51.3277 211.571 51.0653H212.5C212.515 51.249 212.602 51.4038 212.759 51.5297C212.922 51.6505 213.124 51.7108 213.366 51.7108C213.618 51.7108 213.812 51.6636 213.948 51.5691C214.09 51.4694 214.161 51.3434 214.161 51.1912C214.161 51.0285 214.082 50.9078 213.925 50.8291C213.772 50.7503 213.528 50.6637 213.192 50.5693C212.867 50.48 212.602 50.3934 212.397 50.3095C212.193 50.2255 212.014 50.0969 211.862 49.9237C211.715 49.7505 211.642 49.5222 211.642 49.2388C211.642 49.0078 211.71 48.7979 211.846 48.6089C211.983 48.4147 212.177 48.2625 212.429 48.1523C212.686 48.0421 212.98 47.987 213.311 47.987C213.804 47.987 214.2 48.113 214.499 48.3649C214.804 48.6116 214.966 48.9501 214.987 49.3805H214.09C214.074 49.1863 213.995 49.0315 213.854 48.916C213.712 48.8005 213.52 48.7428 213.279 48.7428C213.043 48.7428 212.862 48.7874 212.736 48.8766C212.61 48.9658 212.547 49.0839 212.547 49.2309C212.547 49.3464 212.589 49.4435 212.673 49.5222C212.757 49.6009 212.859 49.6639 212.98 49.7111C213.101 49.7531 213.279 49.8082 213.515 49.8765C213.83 49.9604 214.087 50.047 214.287 50.1363C214.491 50.2202 214.667 50.3462 214.814 50.5142C214.961 50.6821 215.037 50.9052 215.043 51.1833C215.043 51.43 214.974 51.6505 214.838 51.8447C214.701 52.0389 214.507 52.1911 214.255 52.3013C214.009 52.4115 213.717 52.4666 213.381 52.4666ZM217.059 48.79V51.1912C217.059 51.3539 217.096 51.472 217.17 51.5455C217.248 51.6137 217.38 51.6478 217.563 51.6478H218.114V52.3958H217.406C217.002 52.3958 216.692 52.3013 216.477 52.1123C216.262 51.9234 216.154 51.6163 216.154 51.1912V48.79H215.642V48.0579H216.154V46.9793H217.059V48.0579H218.114V48.79H217.059ZM219.304 52.4509C219.141 52.4509 219.005 52.3958 218.894 52.2855C218.784 52.1753 218.729 52.0389 218.729 51.8761C218.729 51.7134 218.784 51.577 218.894 51.4668C219.005 51.3565 219.141 51.3014 219.304 51.3014C219.461 51.3014 219.595 51.3565 219.705 51.4668C219.815 51.577 219.871 51.7134 219.871 51.8761C219.871 52.0389 219.815 52.1753 219.705 52.2855C219.595 52.3958 219.461 52.4509 219.304 52.4509Z" fill="#59524E"/>
</g>
<defs>
<filter id="filter0_dd_32_9832" x="0.621958" y="0.466469" width="239.786" height="75.1141" filterUnits="userSpaceOnUse" color-interpolation-filters="sRGB">
<feFlood flood-opacity="0" result="BackgroundImageFix"/>
<feColorMatrix in="SourceAlpha" type="matrix" values="0 0 0 0 0 0 0 0 0 0 0 0 0 0 0 0 0 0 127 0" result="hardAlpha"/>
<feMorphology radius="1.84451" operator="dilate" in="SourceAlpha" result="effect1_dropShadow_32_9832"/>
<feOffset dy="1.84451"/>
<feGaussianBlur stdDeviation="2.76677"/>
<feColorMatrix type="matrix" values="0 0 0 0 0 0 0 0 0 0 0 0 0 0 0 0 0 0 0.15 0"/>
<feBlend mode="normal" in2="BackgroundImageFix" result="effect1_dropShadow_32_9832"/>
<feColorMatrix in="SourceAlpha" type="matrix" values="0 0 0 0 0 0 0 0 0 0 0 0 0 0 0 0 0 0 127 0" result="hardAlpha"/>
<feOffset dy="0.922255"/>
<feGaussianBlur stdDeviation="0.922255"/>
<feColorMatrix type="matrix" values="0 0 0 0 0 0 0 0 0 0 0 0 0 0 0 0 0 0 0.3 0"/>
<feBlend mode="normal" in2="effect1_dropShadow_32_9832" result="effect2_dropShadow_32_9832"/>
<feBlend mode="normal" in="SourceGraphic" in2="effect2_dropShadow_32_9832" result="shape"/>
</filter>
</defs>
</svg>
