<svg width="226" height="67" viewBox="0 0 226 67" fill="none" xmlns="http://www.w3.org/2000/svg">
<g filter="url(#filter0_dd_32_9849)">
<rect x="8" y="6" width="210" height="51" rx="16" fill="white"/>
<circle cx="88.7227" cy="24.9395" r="8.52046" fill="#1966C0" stroke="#1966C0" stroke-width="0.838078"/>
<path fill-rule="evenodd" clip-rule="evenodd" d="M88.7227 22.1459C90.6689 22.1459 92.3568 23.2516 93.1924 24.8692C92.3569 26.4868 90.6689 27.5927 88.7227 27.5927C86.7765 27.5927 85.0886 26.4869 84.2529 24.8694C85.0884 23.2517 86.7764 22.1459 88.7227 22.1459Z" fill="white" stroke="#1966C0" stroke-width="0.838078" stroke-linejoin="round"/>
<ellipse cx="88.7229" cy="24.9341" rx="1.11744" ry="1.11206" fill="#1966C0"/>
<circle cx="38.4375" cy="24.9395" r="8.52046" stroke="#2A8D42" stroke-width="0.838078"/>
<circle cx="38.4379" cy="24.9395" r="5.72687" stroke="#2A8D42" stroke-width="0.838078"/>
<circle cx="38.4373" cy="24.9395" r="2.93327" stroke="#2A8D42" stroke-width="0.838078"/>
<circle cx="139.566" cy="24.9395" r="8.52046" stroke="#F8872C" stroke-width="0.838078"/>
<circle cx="139.566" cy="24.9395" r="4.46975" fill="white" stroke="#F8872C" stroke-width="0.838078" stroke-linecap="round"/>
<path d="M137.891 26.6156C138.816 27.3606 140.317 27.3606 141.243 26.6156" stroke="#F8872C" stroke-width="0.838078" stroke-linecap="round"/>
<circle cx="138.449" cy="24.1014" r="0.558719" fill="#F8872C"/>
<circle cx="140.684" cy="24.1014" r="0.558719" fill="#F8872C"/>
<circle cx="189.851" cy="24.9395" r="8.52046" stroke="#DFA800" stroke-width="0.838078"/>
<circle cx="189.851" cy="22.146" r="2.23488" stroke="#DFA800" stroke-width="0.838078" stroke-linecap="round"/>
<path d="M193.204 29.4093C193.204 27.5579 191.703 26.057 189.851 26.057C188 26.057 186.499 27.5579 186.499 29.4093" stroke="#DFA800" stroke-width="0.838078" stroke-linecap="round"/>
<path d="M25.4106 38.4542V43.1139H24.6463V39.9225L23.2249 43.1139H22.6953L21.2672 39.9225V43.1139H20.5028V38.4542H21.3275L22.9634 42.1082L24.5927 38.4542H25.4106ZM29.8011 41.1763C29.8011 41.3148 29.7921 41.44 29.7742 41.5517H26.9516C26.9739 41.8467 27.0835 42.0836 27.2801 42.2624C27.4768 42.4412 27.7182 42.5306 28.0042 42.5306C28.4154 42.5306 28.706 42.3585 28.8758 42.0143H29.7005C29.5888 42.354 29.3854 42.6334 29.0904 42.8524C28.7998 43.067 28.4378 43.1742 28.0042 43.1742C27.6511 43.1742 27.3338 43.096 27.0522 42.9396C26.775 42.7787 26.556 42.5552 26.3951 42.2691C26.2387 41.9786 26.1605 41.6433 26.1605 41.2634C26.1605 40.8835 26.2364 40.5505 26.3884 40.2644C26.5448 39.9739 26.7616 39.7504 27.0388 39.594C27.3204 39.4375 27.6422 39.3593 28.0042 39.3593C28.3529 39.3593 28.6635 39.4353 28.9362 39.5873C29.2088 39.7392 29.4211 39.9538 29.5731 40.2309C29.7251 40.5036 29.8011 40.8187 29.8011 41.1763ZM29.0032 40.9349C28.9987 40.6533 28.8982 40.4276 28.7015 40.2577C28.5048 40.0879 28.2612 40.0029 27.9707 40.0029C27.707 40.0029 27.4813 40.0879 27.2935 40.2577C27.1058 40.4231 26.9941 40.6488 26.9583 40.9349H29.0032ZM30.9421 38.9302C30.8035 38.9302 30.6873 38.8833 30.5935 38.7894C30.4996 38.6955 30.4527 38.5793 30.4527 38.4408C30.4527 38.3022 30.4996 38.186 30.5935 38.0921C30.6873 37.9983 30.8035 37.9513 30.9421 37.9513C31.0762 37.9513 31.1902 37.9983 31.284 38.0921C31.3779 38.186 31.4248 38.3022 31.4248 38.4408C31.4248 38.5793 31.3779 38.6955 31.284 38.7894C31.1902 38.8833 31.0762 38.9302 30.9421 38.9302ZM31.3176 39.4196V43.1139H30.5532V39.4196H31.3176ZM34.1849 39.3593C34.4755 39.3593 34.7347 39.4196 34.9627 39.5403C35.1951 39.661 35.3761 39.8398 35.5058 40.0767C35.6354 40.3136 35.7002 40.5997 35.7002 40.9349V43.1139H34.9426V41.0489C34.9426 40.7181 34.8599 40.4656 34.6945 40.2912C34.5291 40.1125 34.3034 40.0231 34.0173 40.0231C33.7313 40.0231 33.5033 40.1125 33.3335 40.2912C33.1681 40.4656 33.0854 40.7181 33.0854 41.0489V43.1139H32.3211V39.4196H33.0854V39.842C33.2105 39.6901 33.3692 39.5716 33.5614 39.4867C33.7581 39.4018 33.9659 39.3593 34.1849 39.3593ZM40.061 41.1763C40.061 41.3148 40.052 41.44 40.0342 41.5517H37.2115C37.2339 41.8467 37.3434 42.0836 37.54 42.2624C37.7367 42.4412 37.9781 42.5306 38.2641 42.5306C38.6754 42.5306 38.9659 42.3585 39.1357 42.0143H39.9604C39.8487 42.354 39.6453 42.6334 39.3503 42.8524C39.0597 43.067 38.6977 43.1742 38.2641 43.1742C37.911 43.1742 37.5937 43.096 37.3121 42.9396C37.035 42.7787 36.8159 42.5552 36.655 42.2691C36.4986 41.9786 36.4204 41.6433 36.4204 41.2634C36.4204 40.8835 36.4963 40.5505 36.6483 40.2644C36.8048 39.9739 37.0215 39.7504 37.2987 39.594C37.5803 39.4375 37.9021 39.3593 38.2641 39.3593C38.6128 39.3593 38.9234 39.4353 39.1961 39.5873C39.4687 39.7392 39.681 39.9538 39.833 40.2309C39.985 40.5036 40.061 40.8187 40.061 41.1763ZM39.2631 40.9349C39.2587 40.6533 39.1581 40.4276 38.9614 40.2577C38.7647 40.0879 38.5211 40.0029 38.2306 40.0029C37.9669 40.0029 37.7412 40.0879 37.5534 40.2577C37.3657 40.4231 37.254 40.6488 37.2182 40.9349H39.2631ZM44.6801 43.1608C44.2466 43.1608 43.8465 43.0603 43.48 42.8591C43.118 42.6535 42.8297 42.3697 42.6151 42.0076C42.405 41.6411 42.3 41.2299 42.3 40.774C42.3 40.3181 42.405 39.9091 42.6151 39.547C42.8297 39.185 43.118 38.9034 43.48 38.7022C43.8465 38.4966 44.2466 38.3938 44.6801 38.3938C45.1182 38.3938 45.5182 38.4966 45.8803 38.7022C46.2468 38.9034 46.5351 39.185 46.7452 39.547C46.9553 39.9091 47.0603 40.3181 47.0603 40.774C47.0603 41.2299 46.9553 41.6411 46.7452 42.0076C46.5351 42.3697 46.2468 42.6535 45.8803 42.8591C45.5182 43.0603 45.1182 43.1608 44.6801 43.1608ZM44.6801 42.4971C44.9886 42.4971 45.2634 42.4278 45.5048 42.2892C45.7462 42.1462 45.9339 41.9451 46.068 41.6858C46.2066 41.4221 46.2758 41.1181 46.2758 40.774C46.2758 40.4298 46.2066 40.1281 46.068 39.8689C45.9339 39.6096 45.7462 39.4107 45.5048 39.2721C45.2634 39.1336 44.9886 39.0643 44.6801 39.0643C44.3717 39.0643 44.0968 39.1336 43.8555 39.2721C43.6141 39.4107 43.4241 39.6096 43.2856 39.8689C43.1515 40.1281 43.0844 40.4298 43.0844 40.774C43.0844 41.1181 43.1515 41.4221 43.2856 41.6858C43.4241 41.9451 43.6141 42.1462 43.8555 42.2892C44.0968 42.4278 44.3717 42.4971 44.6801 42.4971ZM48.5767 39.956C48.6885 39.7683 48.836 39.623 49.0192 39.5202C49.207 39.4129 49.4282 39.3593 49.683 39.3593V40.1504H49.4886C49.1891 40.1504 48.9611 40.2264 48.8047 40.3784C48.6527 40.5304 48.5767 40.7941 48.5767 41.1695V43.1139H47.8124V39.4196H48.5767V39.956ZM51.2773 40.0432V42.0881C51.2773 42.2266 51.3086 42.3272 51.3712 42.3898C51.4382 42.4479 51.5499 42.477 51.7064 42.477H52.1757V43.1139H51.5723C51.2281 43.1139 50.9644 43.0334 50.7811 42.8725C50.5979 42.7116 50.5063 42.4501 50.5063 42.0881V40.0432H50.0705V39.4196H50.5063V38.5011H51.2773V39.4196H52.1757V40.0432H51.2773ZM56.266 41.1763C56.266 41.3148 56.2571 41.44 56.2392 41.5517H53.4165C53.4389 41.8467 53.5484 42.0836 53.7451 42.2624C53.9417 42.4412 54.1831 42.5306 54.4692 42.5306C54.8804 42.5306 55.1709 42.3585 55.3408 42.0143H56.1654C56.0537 42.354 55.8503 42.6334 55.5553 42.8524C55.2648 43.067 54.9027 43.1742 54.4692 43.1742C54.1161 43.1742 53.7987 43.096 53.5171 42.9396C53.24 42.7787 53.021 42.5552 52.8601 42.2691C52.7036 41.9786 52.6254 41.6433 52.6254 41.2634C52.6254 40.8835 52.7014 40.5505 52.8533 40.2644C53.0098 39.9739 53.2266 39.7504 53.5037 39.594C53.7853 39.4375 54.1071 39.3593 54.4692 39.3593C54.8178 39.3593 55.1285 39.4353 55.4011 39.5873C55.6738 39.7392 55.8861 39.9538 56.038 40.2309C56.19 40.5036 56.266 40.8187 56.266 41.1763ZM55.4682 40.9349C55.4637 40.6533 55.3631 40.4276 55.1664 40.2577C54.9698 40.0879 54.7262 40.0029 54.4356 40.0029C54.1719 40.0029 53.9462 40.0879 53.7585 40.2577C53.5707 40.4231 53.459 40.6488 53.4232 40.9349H55.4682Z" fill="#2A8D42"/>
<path d="M73.2281 39.071V40.4387H74.8372V41.0623H73.2281V42.4904H75.0384V43.1139H72.4638V38.4475H75.0384V39.071H73.2281ZM77.8437 39.3593C78.1342 39.3593 78.3935 39.4196 78.6214 39.5403C78.8538 39.661 79.0349 39.8398 79.1645 40.0767C79.2941 40.3136 79.3589 40.5997 79.3589 40.9349V43.1139H78.6013V41.0489C78.6013 40.7181 78.5186 40.4656 78.3532 40.2912C78.1878 40.1125 77.9621 40.0231 77.6761 40.0231C77.39 40.0231 77.162 40.1125 76.9922 40.2912C76.8268 40.4656 76.7441 40.7181 76.7441 41.0489V43.1139H75.9798V39.4196H76.7441V39.842C76.8693 39.6901 77.0279 39.5716 77.2201 39.4867C77.4168 39.4018 77.6247 39.3593 77.8437 39.3593ZM81.2256 40.0432V42.0881C81.2256 42.2266 81.2569 42.3272 81.3194 42.3898C81.3865 42.4479 81.4982 42.477 81.6547 42.477H82.124V43.1139H81.5206C81.1764 43.1139 80.9127 43.0334 80.7294 42.8725C80.5462 42.7116 80.4545 42.4501 80.4545 42.0881V40.0432H80.0187V39.4196H80.4545V38.5011H81.2256V39.4196H82.124V40.0432H81.2256ZM82.5737 41.25C82.5737 40.879 82.6497 40.5505 82.8016 40.2644C82.9581 39.9784 83.1682 39.7571 83.4319 39.6007C83.7001 39.4398 83.9973 39.3593 84.3236 39.3593C84.565 39.3593 84.8019 39.4129 85.0343 39.5202C85.2712 39.623 85.4589 39.7616 85.5975 39.9359V38.1525H86.3685V43.1139H85.5975V42.5574C85.4723 42.7362 85.298 42.8837 85.0745 42.9999C84.8555 43.1161 84.6029 43.1742 84.3169 43.1742C83.9951 43.1742 83.7001 43.0938 83.4319 42.9329C83.1682 42.7675 82.9581 42.5395 82.8016 42.249C82.6497 41.954 82.5737 41.621 82.5737 41.25ZM85.5975 41.2634C85.5975 41.0086 85.5438 40.7874 85.4366 40.5997C85.3338 40.4119 85.1974 40.2689 85.0276 40.1706C84.8577 40.0722 84.6745 40.0231 84.4778 40.0231C84.2811 40.0231 84.0979 40.0722 83.928 40.1706C83.7582 40.2644 83.6196 40.4052 83.5123 40.593C83.4095 40.7762 83.3581 40.9952 83.3581 41.25C83.3581 41.5048 83.4095 41.7283 83.5123 41.9205C83.6196 42.1127 83.7582 42.2602 83.928 42.363C84.1023 42.4613 84.2856 42.5105 84.4778 42.5105C84.6745 42.5105 84.8577 42.4613 85.0276 42.363C85.1974 42.2646 85.3338 42.1216 85.4366 41.9339C85.5438 41.7417 85.5975 41.5182 85.5975 41.2634ZM90.7582 41.1763C90.7582 41.3148 90.7493 41.44 90.7314 41.5517H87.9088C87.9311 41.8467 88.0406 42.0836 88.2373 42.2624C88.434 42.4412 88.6753 42.5306 88.9614 42.5306C89.3726 42.5306 89.6632 42.3585 89.833 42.0143H90.6577C90.5459 42.354 90.3426 42.6334 90.0476 42.8524C89.757 43.067 89.395 43.1742 88.9614 43.1742C88.6083 43.1742 88.2909 43.096 88.0094 42.9396C87.7322 42.7787 87.5132 42.5552 87.3523 42.2691C87.1959 41.9786 87.1176 41.6433 87.1176 41.2634C87.1176 40.8835 87.1936 40.5505 87.3456 40.2644C87.502 39.9739 87.7188 39.7504 87.9959 39.594C88.2775 39.4375 88.5994 39.3593 88.9614 39.3593C89.31 39.3593 89.6207 39.4353 89.8934 39.5873C90.166 39.7392 90.3783 39.9538 90.5303 40.2309C90.6823 40.5036 90.7582 40.8187 90.7582 41.1763ZM89.9604 40.9349C89.9559 40.6533 89.8554 40.4276 89.6587 40.2577C89.462 40.0879 89.2184 40.0029 88.9279 40.0029C88.6642 40.0029 88.4384 40.0879 88.2507 40.2577C88.063 40.4231 87.9512 40.6488 87.9155 40.9349H89.9604ZM91.2556 41.2634C91.2556 40.8835 91.3316 40.5505 91.4836 40.2644C91.64 39.9739 91.8546 39.7504 92.1272 39.594C92.3999 39.4375 92.7128 39.3593 93.0659 39.3593C93.5129 39.3593 93.8816 39.4666 94.1722 39.6811C94.4672 39.8912 94.6661 40.1929 94.7689 40.5862H93.9442C93.8772 40.403 93.7699 40.26 93.6224 40.1572C93.4749 40.0543 93.2894 40.0029 93.0659 40.0029C92.753 40.0029 92.5027 40.1147 92.315 40.3382C92.1317 40.5572 92.0401 40.8656 92.0401 41.2634C92.0401 41.6612 92.1317 41.9719 92.315 42.1954C92.5027 42.4188 92.753 42.5306 93.0659 42.5306C93.5084 42.5306 93.8012 42.3362 93.9442 41.9473H94.7689C94.6616 42.3227 94.4605 42.6222 94.1655 42.8457C93.8705 43.0647 93.5039 43.1742 93.0659 43.1742C92.7128 43.1742 92.3999 43.096 92.1272 42.9396C91.8546 42.7787 91.64 42.5552 91.4836 42.2691C91.3316 41.9786 91.2556 41.6433 91.2556 41.2634ZM96.9922 41.2701L98.6952 43.1139H97.6627L96.2949 41.5249V43.1139H95.5306V38.1525H96.2949V41.0355L97.6358 39.4196H98.6952L96.9922 41.2701ZM102.629 41.1763C102.629 41.3148 102.62 41.44 102.602 41.5517H99.7794C99.8017 41.8467 99.9112 42.0836 100.108 42.2624C100.305 42.4412 100.546 42.5306 100.832 42.5306C101.243 42.5306 101.534 42.3585 101.704 42.0143H102.528C102.417 42.354 102.213 42.6334 101.918 42.8524C101.628 43.067 101.266 43.1742 100.832 43.1742C100.479 43.1742 100.162 43.096 99.8799 42.9396C99.6028 42.7787 99.3838 42.5552 99.2229 42.2691C99.0664 41.9786 98.9882 41.6433 98.9882 41.2634C98.9882 40.8835 99.0642 40.5505 99.2162 40.2644C99.3726 39.9739 99.5894 39.7504 99.8665 39.594C100.148 39.4375 100.47 39.3593 100.832 39.3593C101.181 39.3593 101.491 39.4353 101.764 39.5873C102.037 39.7392 102.249 39.9538 102.401 40.2309C102.553 40.5036 102.629 40.8187 102.629 41.1763ZM101.831 40.9349C101.827 40.6533 101.726 40.4276 101.529 40.2577C101.333 40.0879 101.089 40.0029 100.798 40.0029C100.535 40.0029 100.309 40.0879 100.121 40.2577C99.9336 40.4231 99.8218 40.6488 99.7861 40.9349H101.831ZM105.245 39.3593C105.535 39.3593 105.795 39.4196 106.023 39.5403C106.255 39.661 106.436 39.8398 106.566 40.0767C106.695 40.3136 106.76 40.5997 106.76 40.9349V43.1139H106.003V41.0489C106.003 40.7181 105.92 40.4656 105.754 40.2912C105.589 40.1125 105.363 40.0231 105.077 40.0231C104.791 40.0231 104.563 40.1125 104.393 40.2912C104.228 40.4656 104.145 40.7181 104.145 41.0489V43.1139H103.381V39.4196H104.145V39.842C104.27 39.6901 104.429 39.5716 104.621 39.4867C104.818 39.4018 105.026 39.3593 105.245 39.3593Z" fill="#1966C0"/>
<path d="M177.968 39.842C177.968 40.0789 177.912 40.3024 177.801 40.5125C177.689 40.7226 177.51 40.8947 177.264 41.0288C177.019 41.1584 176.703 41.2232 176.319 41.2232H175.474V43.1139H174.71V38.4542H176.319C176.677 38.4542 176.978 38.5168 177.224 38.6419C177.474 38.7626 177.66 38.928 177.781 39.138C177.906 39.3481 177.968 39.5828 177.968 39.842ZM176.319 40.5997C176.61 40.5997 176.826 40.5348 176.969 40.4052C177.112 40.2711 177.184 40.0834 177.184 39.842C177.184 39.3325 176.896 39.0777 176.319 39.0777H175.474V40.5997H176.319ZM182.083 41.1763C182.083 41.3148 182.074 41.44 182.056 41.5517H179.234C179.256 41.8467 179.366 42.0836 179.562 42.2624C179.759 42.4412 180 42.5306 180.286 42.5306C180.698 42.5306 180.988 42.3585 181.158 42.0143H181.983C181.871 42.354 181.667 42.6334 181.372 42.8524C181.082 43.067 180.72 43.1742 180.286 43.1742C179.933 43.1742 179.616 43.096 179.334 42.9396C179.057 42.7787 178.838 42.5552 178.677 42.2691C178.521 41.9786 178.443 41.6433 178.443 41.2634C178.443 40.8835 178.519 40.5505 178.67 40.2644C178.827 39.9739 179.044 39.7504 179.321 39.594C179.602 39.4375 179.924 39.3593 180.286 39.3593C180.635 39.3593 180.946 39.4353 181.218 39.5873C181.491 39.7392 181.703 39.9538 181.855 40.2309C182.007 40.5036 182.083 40.8187 182.083 41.1763ZM181.285 40.9349C181.281 40.6533 181.18 40.4276 180.984 40.2577C180.787 40.0879 180.543 40.0029 180.253 40.0029C179.989 40.0029 179.763 40.0879 179.576 40.2577C179.388 40.4231 179.276 40.6488 179.24 40.9349H181.285ZM183.6 39.956C183.711 39.7683 183.859 39.623 184.042 39.5202C184.23 39.4129 184.451 39.3593 184.706 39.3593V40.1504H184.511C184.212 40.1504 183.984 40.2264 183.828 40.3784C183.676 40.5304 183.6 40.7941 183.6 41.1695V43.1139H182.835V39.4196H183.6V39.956ZM186.749 43.1742C186.459 43.1742 186.197 43.1228 185.965 43.02C185.737 42.9128 185.556 42.7697 185.422 42.5909C185.288 42.4077 185.216 42.2043 185.207 41.9808H185.998C186.012 42.1373 186.086 42.2691 186.22 42.3764C186.358 42.4792 186.53 42.5306 186.736 42.5306C186.951 42.5306 187.116 42.4904 187.232 42.4099C187.353 42.325 187.413 42.2177 187.413 42.0881C187.413 41.9495 187.346 41.8467 187.212 41.7797C187.082 41.7126 186.875 41.6389 186.588 41.5584C186.311 41.4824 186.086 41.4087 185.911 41.3372C185.737 41.2656 185.585 41.1561 185.455 41.0086C185.33 40.8611 185.268 40.6667 185.268 40.4253C185.268 40.2287 185.326 40.0499 185.442 39.889C185.558 39.7236 185.724 39.594 185.938 39.5001C186.157 39.4062 186.407 39.3593 186.689 39.3593C187.109 39.3593 187.447 39.4666 187.701 39.6811C187.961 39.8912 188.099 40.1795 188.117 40.546H187.353C187.339 40.3806 187.272 40.2488 187.152 40.1504C187.031 40.0521 186.868 40.0029 186.662 40.0029C186.461 40.0029 186.307 40.0409 186.2 40.1169C186.092 40.1929 186.039 40.2935 186.039 40.4186C186.039 40.517 186.074 40.5997 186.146 40.6667C186.217 40.7337 186.305 40.7874 186.407 40.8276C186.51 40.8634 186.662 40.9103 186.863 40.9684C187.132 41.0399 187.351 41.1137 187.52 41.1897C187.695 41.2612 187.844 41.3685 187.97 41.5115C188.095 41.6545 188.16 41.8445 188.164 42.0814C188.164 42.2915 188.106 42.4792 187.99 42.6446C187.874 42.8099 187.708 42.9396 187.494 43.0334C187.284 43.1273 187.035 43.1742 186.749 43.1742ZM190.592 43.1742C190.244 43.1742 189.929 43.096 189.647 42.9396C189.365 42.7787 189.144 42.5552 188.983 42.2691C188.822 41.9786 188.742 41.6433 188.742 41.2634C188.742 40.888 188.825 40.555 188.99 40.2644C189.155 39.9739 189.381 39.7504 189.667 39.594C189.953 39.4375 190.273 39.3593 190.626 39.3593C190.979 39.3593 191.299 39.4375 191.585 39.594C191.871 39.7504 192.096 39.9739 192.262 40.2644C192.427 40.555 192.51 40.888 192.51 41.2634C192.51 41.6389 192.425 41.9719 192.255 42.2624C192.085 42.5529 191.853 42.7787 191.558 42.9396C191.267 43.096 190.945 43.1742 190.592 43.1742ZM190.592 42.5105C190.789 42.5105 190.972 42.4635 191.142 42.3697C191.316 42.2758 191.457 42.135 191.565 41.9473C191.672 41.7596 191.725 41.5316 191.725 41.2634C191.725 40.9952 191.674 40.7695 191.571 40.5862C191.468 40.3985 191.332 40.2577 191.162 40.1639C190.992 40.07 190.809 40.0231 190.612 40.0231C190.416 40.0231 190.233 40.07 190.063 40.1639C189.897 40.2577 189.765 40.3985 189.667 40.5862C189.569 40.7695 189.52 40.9952 189.52 41.2634C189.52 41.6612 189.62 41.9696 189.821 42.1887C190.027 42.4032 190.284 42.5105 190.592 42.5105ZM195.129 39.3593C195.42 39.3593 195.679 39.4196 195.907 39.5403C196.14 39.661 196.321 39.8398 196.45 40.0767C196.58 40.3136 196.645 40.5997 196.645 40.9349V43.1139H195.887V41.0489C195.887 40.7181 195.804 40.4656 195.639 40.2912C195.474 40.1125 195.248 40.0231 194.962 40.0231C194.676 40.0231 194.448 40.1125 194.278 40.2912C194.112 40.4656 194.03 40.7181 194.03 41.0489V43.1139H193.265V39.4196H194.03V39.842C194.155 39.6901 194.314 39.5716 194.506 39.4867C194.702 39.4018 194.91 39.3593 195.129 39.3593ZM201.005 41.1763C201.005 41.3148 200.996 41.44 200.979 41.5517H198.156C198.178 41.8467 198.288 42.0836 198.484 42.2624C198.681 42.4412 198.922 42.5306 199.209 42.5306C199.62 42.5306 199.91 42.3585 200.08 42.0143H200.905C200.793 42.354 200.59 42.6334 200.295 42.8524C200.004 43.067 199.642 43.1742 199.209 43.1742C198.855 43.1742 198.538 43.096 198.256 42.9396C197.979 42.7787 197.76 42.5552 197.599 42.2691C197.443 41.9786 197.365 41.6433 197.365 41.2634C197.365 40.8835 197.441 40.5505 197.593 40.2644C197.749 39.9739 197.966 39.7504 198.243 39.594C198.525 39.4375 198.846 39.3593 199.209 39.3593C199.557 39.3593 199.868 39.4353 200.14 39.5873C200.413 39.7392 200.625 39.9538 200.777 40.2309C200.929 40.5036 201.005 40.8187 201.005 41.1763ZM200.208 40.9349C200.203 40.6533 200.102 40.4276 199.906 40.2577C199.709 40.0879 199.466 40.0029 199.175 40.0029C198.911 40.0029 198.686 40.0879 198.498 40.2577C198.31 40.4231 198.198 40.6488 198.163 40.9349H200.208ZM203.621 39.3593C203.912 39.3593 204.171 39.4196 204.399 39.5403C204.632 39.661 204.813 39.8398 204.942 40.0767C205.072 40.3136 205.137 40.5997 205.137 40.9349V43.1139H204.379V41.0489C204.379 40.7181 204.296 40.4656 204.131 40.2912C203.966 40.1125 203.74 40.0231 203.454 40.0231C203.168 40.0231 202.94 40.1125 202.77 40.2912C202.605 40.4656 202.522 40.7181 202.522 41.0489V43.1139H201.758V39.4196H202.522V39.842C202.647 39.6901 202.806 39.5716 202.998 39.4867C203.195 39.4018 203.402 39.3593 203.621 39.3593Z" fill="#DFA800"/>
<path d="M128.351 42.1618H126.4L126.065 43.1139H125.267L126.936 38.4475H127.821L129.491 43.1139H128.686L128.351 42.1618ZM128.137 41.5383L127.379 39.3727L126.615 41.5383H128.137ZM131.678 41.2701L133.381 43.1139H132.349L130.981 41.5249V43.1139H130.217V38.1525H130.981V41.0355L132.322 39.4196H133.381L131.678 41.2701ZM134.821 40.0432V42.0881C134.821 42.2266 134.852 42.3272 134.915 42.3898C134.982 42.4479 135.094 42.477 135.25 42.477H135.719V43.1139H135.116C134.772 43.1139 134.508 43.0334 134.325 42.8725C134.142 42.7116 134.05 42.4501 134.05 42.0881V40.0432H133.614V39.4196H134.05V38.5011H134.821V39.4196H135.719V40.0432H134.821ZM136.813 38.9302C136.674 38.9302 136.558 38.8833 136.464 38.7894C136.37 38.6955 136.323 38.5793 136.323 38.4408C136.323 38.3022 136.37 38.186 136.464 38.0921C136.558 37.9983 136.674 37.9513 136.813 37.9513C136.947 37.9513 137.061 37.9983 137.155 38.0921C137.249 38.186 137.295 38.3022 137.295 38.4408C137.295 38.5793 137.249 38.6955 137.155 38.7894C137.061 38.8833 136.947 38.9302 136.813 38.9302ZM137.188 39.4196V43.1139H136.424V39.4196H137.188ZM139.794 43.1742C139.445 43.1742 139.13 43.096 138.849 42.9396C138.567 42.7787 138.346 42.5552 138.185 42.2691C138.024 41.9786 137.944 41.6433 137.944 41.2634C137.944 40.888 138.026 40.555 138.192 40.2644C138.357 39.9739 138.583 39.7504 138.869 39.594C139.155 39.4375 139.474 39.3593 139.828 39.3593C140.181 39.3593 140.5 39.4375 140.786 39.594C141.072 39.7504 141.298 39.9739 141.464 40.2644C141.629 40.555 141.712 40.888 141.712 41.2634C141.712 41.6389 141.627 41.9719 141.457 42.2624C141.287 42.5529 141.055 42.7787 140.76 42.9396C140.469 43.096 140.147 43.1742 139.794 43.1742ZM139.794 42.5105C139.991 42.5105 140.174 42.4635 140.344 42.3697C140.518 42.2758 140.659 42.135 140.766 41.9473C140.874 41.7596 140.927 41.5316 140.927 41.2634C140.927 40.9952 140.876 40.7695 140.773 40.5862C140.67 40.3985 140.534 40.2577 140.364 40.1639C140.194 40.07 140.011 40.0231 139.814 40.0231C139.618 40.0231 139.434 40.07 139.264 40.1639C139.099 40.2577 138.967 40.3985 138.869 40.5862C138.77 40.7695 138.721 40.9952 138.721 41.2634C138.721 41.6612 138.822 41.9696 139.023 42.1887C139.229 42.4032 139.486 42.5105 139.794 42.5105ZM144.331 39.3593C144.622 39.3593 144.881 39.4196 145.109 39.5403C145.341 39.661 145.522 39.8398 145.652 40.0767C145.781 40.3136 145.846 40.5997 145.846 40.9349V43.1139H145.089V41.0489C145.089 40.7181 145.006 40.4656 144.841 40.2912C144.675 40.1125 144.449 40.0231 144.163 40.0231C143.877 40.0231 143.649 40.1125 143.48 40.2912C143.314 40.4656 143.231 40.7181 143.231 41.0489V43.1139H142.467V39.4196H143.231V39.842C143.357 39.6901 143.515 39.5716 143.708 39.4867C143.904 39.4018 144.112 39.3593 144.331 39.3593ZM150.207 41.1763C150.207 41.3148 150.198 41.44 150.18 41.5517H147.358C147.38 41.8467 147.489 42.0836 147.686 42.2624C147.883 42.4412 148.124 42.5306 148.41 42.5306C148.821 42.5306 149.112 42.3585 149.282 42.0143H150.107C149.995 42.354 149.791 42.6334 149.496 42.8524C149.206 43.067 148.844 43.1742 148.41 43.1742C148.057 43.1742 147.74 43.096 147.458 42.9396C147.181 42.7787 146.962 42.5552 146.801 42.2691C146.645 41.9786 146.566 41.6433 146.566 41.2634C146.566 40.8835 146.642 40.5505 146.794 40.2644C146.951 39.9739 147.168 39.7504 147.445 39.594C147.726 39.4375 148.048 39.3593 148.41 39.3593C148.759 39.3593 149.07 39.4353 149.342 39.5873C149.615 39.7392 149.827 39.9538 149.979 40.2309C150.131 40.5036 150.207 40.8187 150.207 41.1763ZM149.409 40.9349C149.405 40.6533 149.304 40.4276 149.108 40.2577C148.911 40.0879 148.667 40.0029 148.377 40.0029C148.113 40.0029 147.887 40.0879 147.7 40.2577C147.512 40.4231 147.4 40.6488 147.364 40.9349H149.409ZM152.823 39.3593C153.114 39.3593 153.373 39.4196 153.601 39.5403C153.833 39.661 154.014 39.8398 154.144 40.0767C154.274 40.3136 154.338 40.5997 154.338 40.9349V43.1139H153.581V41.0489C153.581 40.7181 153.498 40.4656 153.333 40.2912C153.167 40.1125 152.942 40.0231 152.656 40.0231C152.369 40.0231 152.141 40.1125 151.972 40.2912C151.806 40.4656 151.724 40.7181 151.724 41.0489V43.1139H150.959V39.4196H151.724V39.842C151.849 39.6901 152.007 39.5716 152.2 39.4867C152.396 39.4018 152.604 39.3593 152.823 39.3593Z" fill="#F8872C"/>
</g>
<defs>
<filter id="filter0_dd_32_9849" x="0" y="0" width="226" height="67" filterUnits="userSpaceOnUse" color-interpolation-filters="sRGB">
<feFlood flood-opacity="0" result="BackgroundImageFix"/>
<feColorMatrix in="SourceAlpha" type="matrix" values="0 0 0 0 0 0 0 0 0 0 0 0 0 0 0 0 0 0 127 0" result="hardAlpha"/>
<feMorphology radius="2" operator="dilate" in="SourceAlpha" result="effect1_dropShadow_32_9849"/>
<feOffset dy="2"/>
<feGaussianBlur stdDeviation="3"/>
<feColorMatrix type="matrix" values="0 0 0 0 0 0 0 0 0 0 0 0 0 0 0 0 0 0 0.15 0"/>
<feBlend mode="normal" in2="BackgroundImageFix" result="effect1_dropShadow_32_9849"/>
<feColorMatrix in="SourceAlpha" type="matrix" values="0 0 0 0 0 0 0 0 0 0 0 0 0 0 0 0 0 0 127 0" result="hardAlpha"/>
<feOffset dy="1"/>
<feGaussianBlur stdDeviation="1"/>
<feColorMatrix type="matrix" values="0 0 0 0 0 0 0 0 0 0 0 0 0 0 0 0 0 0 0.3 0"/>
<feBlend mode="normal" in2="effect1_dropShadow_32_9849" result="effect2_dropShadow_32_9849"/>
<feBlend mode="normal" in="SourceGraphic" in2="effect2_dropShadow_32_9849" result="shape"/>
</filter>
</defs>
</svg>
