<svg width="108" height="119" viewBox="0 0 108 119" fill="none" xmlns="http://www.w3.org/2000/svg">
<path d="M76.8827 101.895C76.8827 101.895 93.4991 59.9319 80.8237 34.5732C80.5676 34.0524 80.2903 33.5423 80.0059 33.0357C79.9112 32.8609 79.8023 32.6932 79.7005 32.522C79.5074 32.2009 79.3214 31.8763 79.1248 31.5659C78.9949 31.3554 78.8509 31.152 78.7139 30.9451C78.5384 30.6775 78.3628 30.4099 78.1802 30.1459C78.0257 29.9211 77.8606 29.7106 77.6955 29.5C77.5199 29.2681 77.3479 29.0255 77.1722 28.7935C76.9896 28.5651 76.7999 28.3403 76.6173 28.1119C76.4487 27.9121 76.2836 27.7015 76.115 27.5017C75.9112 27.2662 75.6934 27.0377 75.4826 26.8058C75.3175 26.6309 75.1629 26.4417 74.9908 26.2704C74.7589 26.0313 74.527 25.81 74.2951 25.5708C74.1405 25.4173 73.9824 25.2567 73.8278 25.1032C73.5783 24.8641 73.3183 24.6392 73.0582 24.4142C72.9036 24.2786 72.7631 24.1358 72.6049 24.0108C72.3273 23.7681 72.0426 23.5467 71.7545 23.3182C71.6209 23.2075 71.4839 23.0897 71.3433 22.9826C71.034 22.7469 70.7177 22.5148 70.4049 22.2898C70.2819 22.2005 70.1659 22.1077 70.0358 22.022C69.7019 21.7899 69.361 21.5613 69.0165 21.3434C68.911 21.272 68.8021 21.1934 68.6896 21.1255C68.3311 20.8969 67.9585 20.6754 67.5893 20.4611C67.4944 20.411 67.403 20.3503 67.3046 20.2932C66.9144 20.0717 66.5242 19.868 66.1234 19.6607C66.0425 19.6214 65.9652 19.5714 65.8843 19.5321C65.466 19.3248 65.0511 19.1246 64.6222 18.9316C64.5554 18.903 64.4956 18.8708 64.4359 18.8387C63.9964 18.6421 63.5463 18.4597 63.0962 18.2773C63.0505 18.2559 63.0048 18.2344 62.9556 18.2237C62.488 18.0413 62.0203 17.8767 61.5456 17.7157C61.5139 17.7049 61.4823 17.6942 61.4506 17.6835C60.9548 17.5153 60.459 17.365 59.9596 17.2253C59.9491 17.2217 59.9386 17.2182 59.921 17.2181C52.1247 15.0017 43.5194 15.6255 35.7226 19.6263C19.1997 28.115 12.5859 48.5656 20.966 65.3168C34.5293 92.4448 76.8686 101.902 76.8686 101.902L76.8827 101.895ZM33.096 59.0827C28.1234 49.134 32.057 36.9399 41.8814 31.8972C41.9447 31.8652 42.0081 31.8332 42.0715 31.8012C46.3517 29.6569 51.0415 29.2207 55.3707 30.2314C55.6766 30.2995 55.9826 30.3855 56.285 30.4643C56.285 30.4643 56.3061 30.4714 56.3167 30.475C56.6121 30.5574 56.9039 30.6504 57.1958 30.7435C57.2169 30.7506 57.238 30.7578 57.2591 30.7649C57.5369 30.8651 57.8146 30.9653 58.0924 31.0654C58.1241 31.0762 58.1487 31.0905 58.1803 31.1012C58.444 31.2085 58.7077 31.3158 58.9679 31.4337C59.0136 31.4552 59.0488 31.473 59.0945 31.4945C59.3441 31.6089 59.5832 31.7197 59.8293 31.8448C59.8785 31.8733 59.9277 31.9019 59.9804 31.9198C60.216 32.0413 60.4445 32.1664 60.673 32.2914C60.7328 32.3236 60.789 32.3664 60.8488 32.3986C61.0667 32.5201 61.2811 32.6522 61.4956 32.7844C61.5624 32.8308 61.6291 32.8773 61.703 32.9201C61.9068 33.0487 62.1037 33.1809 62.304 33.3202C62.3813 33.3702 62.4551 33.4309 62.536 33.488C62.7152 33.6201 62.905 33.7558 63.0878 33.8951C63.1721 33.9594 63.253 34.0343 63.3408 34.1057C63.506 34.245 63.6747 34.3735 63.8398 34.5128C63.9312 34.5913 64.0261 34.677 64.1104 34.7591C64.265 34.8947 64.4091 35.0268 64.5567 35.166C64.6551 35.2588 64.7464 35.3552 64.8483 35.4551C64.9853 35.5908 65.1188 35.7193 65.2559 35.8549C65.3578 35.9549 65.4491 36.0691 65.5475 36.1797C65.6739 36.3117 65.7934 36.4474 65.9163 36.5901C66.0182 36.7079 66.113 36.8292 66.2044 36.9434C66.3168 37.0826 66.4362 37.2182 66.5486 37.3574C66.6469 37.4858 66.7488 37.6214 66.8401 37.7534C66.942 37.889 67.0438 38.0246 67.1457 38.1602C67.2545 38.3101 67.3528 38.4742 67.4582 38.6347C67.5389 38.7632 67.6232 38.8809 67.7039 39.0093C67.8268 39.2056 67.9427 39.4053 68.0585 39.6051C68.1147 39.7014 68.1779 39.7942 68.227 39.8941C68.392 40.1937 68.557 40.4934 68.7114 40.8073C73.684 50.756 69.7503 62.9501 59.926 67.9929C50.1087 73.032 38.0756 69.0457 33.0995 59.0899L33.096 59.0827Z" fill="#5B5958" fill-opacity="0.4"/>
<path d="M37.0274 29.102C46.8766 24.0338 58.9167 27.9788 63.8697 37.9129C68.8226 47.847 64.8406 60.04 54.9844 65.1118C45.1352 70.1801 33.095 66.235 28.1421 56.3009C23.1927 46.3739 27.1712 34.1739 37.0274 29.102ZM30.9183 16.8472C14.3417 25.3849 7.65282 45.8456 15.9939 62.5602C29.4939 89.6289 71.8726 98.9432 71.8726 98.9432C71.8726 98.9432 88.6483 56.9498 76.032 31.6465C67.6944 14.939 47.502 8.30602 30.9254 16.8437L30.9183 16.8472Z" fill="#DE3205"/>
<path d="M31.0938 16.7324L37.1334 29.0378C46.9602 24.1076 58.8934 28.0744 63.8252 37.9427C68.7815 47.8788 64.7975 60.09 54.9277 65.1665C54.9135 65.1736 54.8923 65.1844 54.8782 65.1915L71.8321 99.0324C71.8321 99.0324 88.6309 57.0006 75.9972 31.6742C67.6936 15.044 47.6464 8.39748 31.1008 16.7288L31.0938 16.7324Z" fill="#BF2717"/>
<path d="M43.7317 42.311C46.3222 40.9989 49.4693 42.061 50.7468 44.6651C52.0243 47.2692 50.9574 50.4656 48.3739 51.7741C45.7905 53.0826 42.6363 52.0241 41.3588 49.42C40.0813 46.8159 41.1482 43.6195 43.7317 42.311ZM40.9184 36.5762C35.1797 39.4828 32.8353 46.5241 35.6696 52.3016C38.5038 58.079 45.4556 60.4119 51.1872 57.5089C56.9188 54.6059 59.2703 47.561 56.4361 41.7835C53.6018 36.006 46.65 33.6732 40.9184 36.5762Z" fill="#7F1B12"/>
</svg>
