<svg width="141" height="153" viewBox="0 0 141 153" fill="none" xmlns="http://www.w3.org/2000/svg">
<path d="M47.5905 41.7907L46.1274 38.0869L25.2299 38.7747L23.6852 34.8643L11.4902 39.8117L41.5952 116.02L44.0998 115.004L53.5723 138.982C49.7082 142.074 47.528 146.862 47.6881 151.822L74.7064 140.861C71.216 136.901 65.9175 134.95 60.6693 135.821L51.2959 112.093L53.8004 111.077L52.4277 107.602L68.0205 93.4858L66.3155 89.1696L111.848 43.2186L47.6037 41.8025L47.5905 41.7907Z" fill="#5B5958" fill-opacity="0.4"/>
<path d="M61.4402 86.657L108.368 39.4293L42.376 38.2004L61.4402 86.657Z" fill="#F8872C"/>
<path d="M48.0487 104.54L64.4757 89.7139L42.682 34.3806L20.7275 35.1724L48.0487 104.54Z" fill="#B46322"/>
<path d="M46.7907 105.84L39.5518 108.785L53.4962 144.173L60.7352 141.229L46.7907 105.84Z" fill="#D9D8DB"/>
<path d="M46.7654 105.84L39.5518 108.779L42.5451 116.387L49.7587 113.449L46.7654 105.84Z" fill="#C6C5CA"/>
<path d="M71.1583 137.097C66.9529 132.345 60.0989 130.51 53.8666 133.047C47.6344 135.583 43.9191 141.72 44.1009 148.11L71.151 137.1L71.1583 137.097Z" fill="white"/>
<path d="M20.2239 31.1574L7.94531 36.1497L37.9668 112.313L50.2454 107.32L20.2239 31.1574Z" fill="#F8872C"/>
</svg>
