<svg width="64" height="63" viewBox="0 0 64 63" fill="none" xmlns="http://www.w3.org/2000/svg">
<path d="M40.0713 26.0877L41.6958 38.031L38.6548 38.4446L37.0303 26.5013L40.0713 26.0877Z" fill="white"/>
<path d="M36.4051 23.1894C36.2784 22.2575 36.8683 21.4529 37.8738 21.3161C38.9038 21.176 39.6382 21.8005 39.7895 22.7291C39.9129 23.6364 39.3475 24.4377 38.2929 24.5811C37.2874 24.7179 36.5286 24.0968 36.4051 23.1894Z" fill="white"/>
<path fill-rule="evenodd" clip-rule="evenodd" d="M34.3418 39.0312L32.2087 34.5505L26.9606 35.2644L26.1754 40.142L23.0608 40.5656L26.1097 23.3159L29.9599 22.7922L37.579 38.5909L34.3418 39.0312ZM27.8623 28.6725L27.1409 32.9169L31.3835 32.3398L29.53 28.4456C29.1613 27.6669 28.8139 26.8036 28.4957 26.0133C28.4208 25.8271 28.3475 25.645 28.2758 25.4691L28.2268 25.4757C28.1875 25.8147 28.1512 26.1767 28.1139 26.5473C28.0426 27.2585 27.9681 28.0014 27.8623 28.6725Z" fill="white"/>
<path fill-rule="evenodd" clip-rule="evenodd" d="M40.8104 9.38832C32.9642 9.57578 24.9752 10.6624 17.3641 12.5775C12.9465 13.689 9.80574 17.7153 9.89169 22.2962C10.0423 30.3239 11.1281 38.3065 13.1271 46.0827C14.2678 50.52 18.3699 53.5614 22.9239 53.4524C30.7699 53.2651 38.759 52.1785 46.3702 50.2633C50.7877 49.152 53.9283 45.1255 53.8425 40.5446C53.6918 32.517 52.606 24.5344 50.6071 16.7581C49.4663 12.3207 45.3643 9.27954 40.8104 9.38832ZM18.1876 15.8504C25.5556 13.9966 33.2954 12.9438 40.8908 12.7624C43.9015 12.6904 46.5951 14.7074 47.3385 17.5984C49.2722 25.1207 50.3225 32.8425 50.4682 40.608C50.524 43.5923 48.467 46.2557 45.5465 46.9904C38.1786 48.8443 30.4387 49.8971 22.8433 50.0784C19.8328 50.1505 17.139 48.1333 16.3958 45.2425C14.4621 37.7201 13.4118 29.9984 13.2661 22.2329C13.2101 19.2484 15.2673 16.5852 18.1876 15.8504Z" fill="white"/>
</svg>
