<svg width="121" height="146" viewBox="0 0 121 146" fill="none" xmlns="http://www.w3.org/2000/svg">
<path d="M16.923 77.2224L37.617 85.861L37.5437 92.259L37.101 130.846L68.7185 98.8542L88.6609 107.179L118.613 35.429L46.8711 5.48096L16.923 77.2224ZM94.7648 49.3127L79.7088 85.3799L38.7137 68.2667L53.7697 32.1995L94.7648 49.3127Z" fill="#5B5958" fill-opacity="0.4"/>
<path d="M39.0957 63.1211L38.3853 125.365L82.1406 81.0899L39.0957 63.1211Z" fill="#2A8D42"/>
<path d="M65.509 97.9158L82.1406 81.0899L39.0957 63.1211L38.828 86.7779L65.509 97.9158Z" fill="#1D652E"/>
<path d="M98.1071 38.9038L80.9939 79.8989L39.9988 62.7857L57.112 21.7906L98.1071 38.9038ZM119.898 29.9481L48.1562 0L18.2082 71.7415L89.9497 101.69L119.898 29.9481Z" fill="#33A54E"/>
</svg>
