<svg width="74" height="79" viewBox="0 0 74 79" fill="none" xmlns="http://www.w3.org/2000/svg">
<path d="M39.5009 51.3446L58.6369 63.6146L64.0292 54.6797L48.8114 44.9144L48.8166 44.912L45.2823 42.6429L62.0088 32.9165L4.51074 23.9679L38.6131 71.7332L39.5009 51.3446Z" fill="#5B5958" fill-opacity="0.4"/>
<path d="M36.8813 37.3433C34.7633 40.1276 32.7074 42.9655 30.6444 45.7877L55.1046 61.3875L60.5291 52.4449L36.8837 37.3486L36.8813 37.3433Z" fill="#ACACB2"/>
<path d="M45.3191 42.6995L36.8774 37.3163C34.7603 40.0993 32.7054 42.9359 30.6434 45.7568L39.3785 51.3145L39.1209 45.1645L45.3215 42.7047L45.3191 42.6995Z" fill="#8A8A91"/>
<path d="M58.5566 30.6541L1 21.9058L34.9998 69.513L36.2111 43.6636L58.5566 30.6541Z" fill="#D9D8DB"/>
<path d="M58.5043 30.6253L1 21.8855L36.1791 43.622L58.5043 30.6253Z" fill="#C6C5CA"/>
</svg>
