<svg width="111" height="112" viewBox="0 0 111 112" fill="none" xmlns="http://www.w3.org/2000/svg">
<path d="M44.0366 75.2417L50.4204 72.967L58.7884 87.392L67.7674 82.036L64.8421 76.9934L87.4963 56.5271L91.3118 63.1161L92.2632 64.7562L101.25 59.4023L100.299 57.7622L78.2717 19.8029L69.2947 25.1508L73.1103 31.7397L44.4541 41.8478L41.5229 36.795L32.5439 42.151L40.9119 56.5759L4.325 89.3999L44.0366 75.2417Z" fill="#5B5958" fill-opacity="0.4"/>
<path d="M39.1416 50.7618L2.37578 83.6112L48.7647 67.2446L39.1416 50.7618Z" fill="#C6C5CA"/>
<path d="M42.113 69.5355L48.7641 67.189L39.141 50.7063L33.8275 55.4481C36.5853 60.1486 39.3452 64.841 42.113 69.5355Z" fill="#ACACB2"/>
<path d="M60.525 73.4475L39.3576 37.1916L71.3214 26.0386L85.7582 50.7547L60.525 73.4475Z" fill="#2B8AFA"/>
<path d="M60.4946 73.4464L50.0353 55.3347L78.5102 38.3858L85.7345 50.7479L60.4946 73.4464Z" fill="#1966C0"/>
<path d="M98.3457 52.1031L76.2832 14.1107L67.3462 19.4285L89.4087 57.4209L98.3457 52.1031Z" fill="#1B61B4"/>
<path d="M65.8233 76.3868L39.5342 31.1112L30.5992 36.4283L56.8883 81.704L65.8233 76.3868Z" fill="#145AAD"/>
<path d="M99.2949 53.7409L87.2734 33.0466L78.3285 38.3672L90.35 59.0615L99.2949 53.7409Z" fill="#144682"/>
<path d="M65.8114 76.3739L52.627 53.6766L43.6833 58.9967L56.8678 81.694L65.8114 76.3739Z" fill="#144682"/>
</svg>
