<svg width="1344" height="562" viewBox="0 0 1344 562" fill="none" xmlns="http://www.w3.org/2000/svg">
<path fill-rule="evenodd" clip-rule="evenodd" d="M912.239 138.568C924.938 98.7069 923.505 62.2024 904.926 36.1355C861.503 -24.7866 740.861 -5.62652 635.466 78.9306C564.884 135.558 519.038 207.154 509.495 266.571C508.466 249.007 503.457 233.191 494.079 220.034C475.823 194.422 443.92 182.964 405.239 184.568C417.938 144.707 416.505 108.202 397.926 82.1355C354.503 21.2134 233.861 40.3735 128.466 124.931C23.0705 209.488 -27.1681 327.422 16.255 388.344C34.5105 413.956 66.4139 425.414 105.095 423.81C92.3961 463.671 93.8285 500.176 112.408 526.243C155.831 587.165 276.472 568.005 381.868 483.447C452.45 426.82 498.296 355.224 507.839 295.807C508.868 313.371 513.877 329.187 523.255 342.344C541.51 367.956 573.414 379.414 612.095 377.81C599.396 417.671 600.828 454.176 619.408 480.243C662.831 541.165 783.472 522.005 888.868 437.447C898.974 429.34 908.572 420.925 917.63 412.283C924.503 412.945 931.674 413.118 939.095 412.81C926.396 452.671 927.829 489.176 946.408 515.243C989.831 576.165 1110.47 557.005 1215.87 472.447C1321.26 387.89 1371.5 269.956 1328.08 209.034C1309.82 183.422 1277.92 171.964 1239.24 173.568C1251.94 133.707 1250.51 97.2024 1231.93 71.1355C1188.5 10.2134 1067.86 29.3735 962.466 113.931C952.36 122.038 942.761 130.453 933.704 139.095C926.831 138.433 919.66 138.261 912.239 138.568Z" fill="#5B5958" fill-opacity="0.2"/>
</svg>
