<svg width="94" height="29" viewBox="0 0 94 29" fill="none" xmlns="http://www.w3.org/2000/svg">
<path fill-rule="evenodd" clip-rule="evenodd" d="M50.1051 2.97012V20.6766C51.9318 22.1331 54.7419 22.6471 57.2992 22.6471C62.0202 22.6471 65.7015 19.5628 65.7015 13.7082C65.7015 9.02459 63.341 6.68277 60.025 6.68277C57.6364 6.68277 56.0908 8.16782 55.3039 9.45297V0H54.4328L48.5596 1.31371V2.17047L50.1051 2.97012ZM13.0953 18.7917C13.2359 19.2201 13.3202 19.5628 13.3202 19.8484C13.3202 20.8194 12.5333 21.105 11.1282 21.1621V22.3616H21.0481V21.1621C20.2331 21.0479 19.6711 20.8479 19.3901 20.1054L12.3928 2.25615H6.51957L7.47502 4.62653L1.62989 20.1054C1.32078 20.8765 0.758743 21.0479 0 21.1621V22.3616H6.04184V21.1621C4.52436 21.0764 3.73751 20.7623 3.73751 19.8198C3.73751 19.5342 3.82182 19.1915 3.96233 18.7631L4.91778 16.1643H12.0837L13.0953 18.7917ZM8.40238 6.71132L11.4655 14.6221H5.47981L8.40238 6.71132ZM40.2481 21.2478C41.3721 21.1621 41.6532 21.0479 41.6532 20.134V11.7091C41.6532 10.4811 41.2597 9.76712 39.9671 9.76712C39.124 9.76712 38.4496 10.0813 37.747 10.424V20.134C37.747 20.9565 37.9747 21.1312 38.8396 21.2204L39.1521 21.2478V22.3616H31.1432V21.2478C32.2672 21.1621 32.5482 21.0479 32.5482 20.134V11.7091C32.5482 10.4811 32.1548 9.76712 30.8902 9.76712C30.0191 9.76712 29.3447 10.0527 28.6421 10.424V20.134C28.6421 20.9565 28.8925 21.1312 29.762 21.2204L30.0753 21.2478V22.3616H21.8977V21.2478C23.0218 21.1621 23.4714 21.0479 23.4714 20.134V10.1098L21.9258 9.13882V8.33918L27.7991 6.68277H28.7545L28.6421 9.59577C29.71 8.02503 31.2275 6.68277 33.7285 6.68277C35.8923 6.68277 37.2412 7.56809 37.6346 9.65288C38.6463 8.11071 40.3605 6.68277 42.7772 6.68277C45.3907 6.68277 46.8519 8.22494 46.8519 11.2236V20.134C46.8519 20.9517 47.2119 21.1292 48.0727 21.2189L48.3975 21.2478V22.3616H40.2481V21.2478ZM55.3039 18.3348C55.3039 20.1625 55.8098 21.3049 57.2992 21.3049C59.3225 21.3049 60.4184 18.6775 60.4184 15.3075C60.4184 11.5378 59.0977 9.79568 56.9619 9.79568C56.3718 9.79568 55.8098 9.93847 55.3039 10.2812V18.3348ZM75.9784 17.1639L73.0277 9.88135L72.9267 9.57884C72.8685 9.39903 72.831 9.25306 72.831 9.08171C72.831 8.45341 73.1963 8.28206 74.6857 8.08215V6.96835H65.6932V8.08215C66.6767 8.39629 66.8454 8.59621 67.1264 9.2245L73.5335 23.0755L73.0839 24.0751C72.5781 25.2746 71.7631 25.7315 70.1894 25.7315C69.4262 25.7315 68.8786 25.6219 68.2633 25.4987C68.1763 25.4813 68.088 25.4636 67.9975 25.4459V27.4736C68.3909 28.2161 69.2621 28.6731 70.358 28.6731C72.3252 28.6731 73.3649 27.3594 74.4047 24.8462L80.8118 9.2245C81.0648 8.59621 81.2896 8.39629 82.245 8.08215V6.96835H77.1305V8.08215L77.5196 8.13891C78.6632 8.31884 78.9852 8.51325 78.9852 9.08171C78.9852 9.31868 78.9136 9.50711 78.7923 9.82604L78.7604 9.90991L75.9784 17.1639ZM89.6128 6.44108V2.55708H88.5168C87.0555 4.52764 85.0322 6.18405 82.7841 7.04082V7.98326H84.3859V17.9635C84.3859 21.3334 86.1844 22.6471 88.7697 22.6471C91.0179 22.6471 92.5915 21.619 93.6594 19.8484L93.2379 19.2201C92.5634 19.677 91.9452 19.9341 91.2146 19.9341C90.1467 19.9341 89.6128 19.3343 89.6128 17.9635V7.98326H92.9007V6.44108H89.6128Z" fill="white"/>
</svg>
